G04 #@! TF.GenerationSoftware,KiCad,Pcbnew,(5.1.2)-2*
G04 #@! TF.CreationDate,2019-07-31T13:06:10-06:00*
G04 #@! TF.ProjectId,ps2plus,70733270-6c75-4732-9e6b-696361645f70,rev?*
G04 #@! TF.SameCoordinates,Original*
G04 #@! TF.FileFunction,Soldermask,Bot*
G04 #@! TF.FilePolarity,Negative*
%FSLAX46Y46*%
G04 Gerber Fmt 4.6, Leading zero omitted, Abs format (unit mm)*
G04 Created by KiCad (PCBNEW (5.1.2)-2) date 2019-07-31 13:06:10*
%MOMM*%
%LPD*%
G04 APERTURE LIST*
%ADD10C,0.100000*%
G04 APERTURE END LIST*
D10*
G36*
X139331000Y-107581000D02*
G01*
X137529000Y-107581000D01*
X137529000Y-105779000D01*
X139331000Y-105779000D01*
X139331000Y-107581000D01*
X139331000Y-107581000D01*
G37*
G36*
X141080443Y-105785519D02*
G01*
X141146627Y-105792037D01*
X141316466Y-105843557D01*
X141472991Y-105927222D01*
X141508729Y-105956552D01*
X141610186Y-106039814D01*
X141693448Y-106141271D01*
X141722778Y-106177009D01*
X141806443Y-106333534D01*
X141857963Y-106503373D01*
X141875359Y-106680000D01*
X141857963Y-106856627D01*
X141806443Y-107026466D01*
X141722778Y-107182991D01*
X141693448Y-107218729D01*
X141610186Y-107320186D01*
X141508729Y-107403448D01*
X141472991Y-107432778D01*
X141316466Y-107516443D01*
X141146627Y-107567963D01*
X141080443Y-107574481D01*
X141014260Y-107581000D01*
X140925740Y-107581000D01*
X140859557Y-107574481D01*
X140793373Y-107567963D01*
X140623534Y-107516443D01*
X140467009Y-107432778D01*
X140431271Y-107403448D01*
X140329814Y-107320186D01*
X140246552Y-107218729D01*
X140217222Y-107182991D01*
X140133557Y-107026466D01*
X140082037Y-106856627D01*
X140064641Y-106680000D01*
X140082037Y-106503373D01*
X140133557Y-106333534D01*
X140217222Y-106177009D01*
X140246552Y-106141271D01*
X140329814Y-106039814D01*
X140431271Y-105956552D01*
X140467009Y-105927222D01*
X140623534Y-105843557D01*
X140793373Y-105792037D01*
X140859557Y-105785519D01*
X140925740Y-105779000D01*
X141014260Y-105779000D01*
X141080443Y-105785519D01*
X141080443Y-105785519D01*
G37*
G36*
X143620443Y-105785519D02*
G01*
X143686627Y-105792037D01*
X143856466Y-105843557D01*
X144012991Y-105927222D01*
X144048729Y-105956552D01*
X144150186Y-106039814D01*
X144233448Y-106141271D01*
X144262778Y-106177009D01*
X144346443Y-106333534D01*
X144397963Y-106503373D01*
X144415359Y-106680000D01*
X144397963Y-106856627D01*
X144346443Y-107026466D01*
X144262778Y-107182991D01*
X144233448Y-107218729D01*
X144150186Y-107320186D01*
X144048729Y-107403448D01*
X144012991Y-107432778D01*
X143856466Y-107516443D01*
X143686627Y-107567963D01*
X143620443Y-107574481D01*
X143554260Y-107581000D01*
X143465740Y-107581000D01*
X143399557Y-107574481D01*
X143333373Y-107567963D01*
X143163534Y-107516443D01*
X143007009Y-107432778D01*
X142971271Y-107403448D01*
X142869814Y-107320186D01*
X142786552Y-107218729D01*
X142757222Y-107182991D01*
X142673557Y-107026466D01*
X142622037Y-106856627D01*
X142604641Y-106680000D01*
X142622037Y-106503373D01*
X142673557Y-106333534D01*
X142757222Y-106177009D01*
X142786552Y-106141271D01*
X142869814Y-106039814D01*
X142971271Y-105956552D01*
X143007009Y-105927222D01*
X143163534Y-105843557D01*
X143333373Y-105792037D01*
X143399557Y-105785519D01*
X143465740Y-105779000D01*
X143554260Y-105779000D01*
X143620443Y-105785519D01*
X143620443Y-105785519D01*
G37*
G36*
X146160443Y-105785519D02*
G01*
X146226627Y-105792037D01*
X146396466Y-105843557D01*
X146552991Y-105927222D01*
X146588729Y-105956552D01*
X146690186Y-106039814D01*
X146773448Y-106141271D01*
X146802778Y-106177009D01*
X146886443Y-106333534D01*
X146937963Y-106503373D01*
X146955359Y-106680000D01*
X146937963Y-106856627D01*
X146886443Y-107026466D01*
X146802778Y-107182991D01*
X146773448Y-107218729D01*
X146690186Y-107320186D01*
X146588729Y-107403448D01*
X146552991Y-107432778D01*
X146396466Y-107516443D01*
X146226627Y-107567963D01*
X146160443Y-107574481D01*
X146094260Y-107581000D01*
X146005740Y-107581000D01*
X145939557Y-107574481D01*
X145873373Y-107567963D01*
X145703534Y-107516443D01*
X145547009Y-107432778D01*
X145511271Y-107403448D01*
X145409814Y-107320186D01*
X145326552Y-107218729D01*
X145297222Y-107182991D01*
X145213557Y-107026466D01*
X145162037Y-106856627D01*
X145144641Y-106680000D01*
X145162037Y-106503373D01*
X145213557Y-106333534D01*
X145297222Y-106177009D01*
X145326552Y-106141271D01*
X145409814Y-106039814D01*
X145511271Y-105956552D01*
X145547009Y-105927222D01*
X145703534Y-105843557D01*
X145873373Y-105792037D01*
X145939557Y-105785519D01*
X146005740Y-105779000D01*
X146094260Y-105779000D01*
X146160443Y-105785519D01*
X146160443Y-105785519D01*
G37*
G36*
X151240443Y-105785519D02*
G01*
X151306627Y-105792037D01*
X151476466Y-105843557D01*
X151632991Y-105927222D01*
X151668729Y-105956552D01*
X151770186Y-106039814D01*
X151853448Y-106141271D01*
X151882778Y-106177009D01*
X151966443Y-106333534D01*
X152017963Y-106503373D01*
X152035359Y-106680000D01*
X152017963Y-106856627D01*
X151966443Y-107026466D01*
X151882778Y-107182991D01*
X151853448Y-107218729D01*
X151770186Y-107320186D01*
X151668729Y-107403448D01*
X151632991Y-107432778D01*
X151476466Y-107516443D01*
X151306627Y-107567963D01*
X151240443Y-107574481D01*
X151174260Y-107581000D01*
X151085740Y-107581000D01*
X151019557Y-107574481D01*
X150953373Y-107567963D01*
X150783534Y-107516443D01*
X150627009Y-107432778D01*
X150591271Y-107403448D01*
X150489814Y-107320186D01*
X150406552Y-107218729D01*
X150377222Y-107182991D01*
X150293557Y-107026466D01*
X150242037Y-106856627D01*
X150224641Y-106680000D01*
X150242037Y-106503373D01*
X150293557Y-106333534D01*
X150377222Y-106177009D01*
X150406552Y-106141271D01*
X150489814Y-106039814D01*
X150591271Y-105956552D01*
X150627009Y-105927222D01*
X150783534Y-105843557D01*
X150953373Y-105792037D01*
X151019557Y-105785519D01*
X151085740Y-105779000D01*
X151174260Y-105779000D01*
X151240443Y-105785519D01*
X151240443Y-105785519D01*
G37*
G36*
X148700443Y-105785519D02*
G01*
X148766627Y-105792037D01*
X148936466Y-105843557D01*
X149092991Y-105927222D01*
X149128729Y-105956552D01*
X149230186Y-106039814D01*
X149313448Y-106141271D01*
X149342778Y-106177009D01*
X149426443Y-106333534D01*
X149477963Y-106503373D01*
X149495359Y-106680000D01*
X149477963Y-106856627D01*
X149426443Y-107026466D01*
X149342778Y-107182991D01*
X149313448Y-107218729D01*
X149230186Y-107320186D01*
X149128729Y-107403448D01*
X149092991Y-107432778D01*
X148936466Y-107516443D01*
X148766627Y-107567963D01*
X148700443Y-107574481D01*
X148634260Y-107581000D01*
X148545740Y-107581000D01*
X148479557Y-107574481D01*
X148413373Y-107567963D01*
X148243534Y-107516443D01*
X148087009Y-107432778D01*
X148051271Y-107403448D01*
X147949814Y-107320186D01*
X147866552Y-107218729D01*
X147837222Y-107182991D01*
X147753557Y-107026466D01*
X147702037Y-106856627D01*
X147684641Y-106680000D01*
X147702037Y-106503373D01*
X147753557Y-106333534D01*
X147837222Y-106177009D01*
X147866552Y-106141271D01*
X147949814Y-106039814D01*
X148051271Y-105956552D01*
X148087009Y-105927222D01*
X148243534Y-105843557D01*
X148413373Y-105792037D01*
X148479557Y-105785519D01*
X148545740Y-105779000D01*
X148634260Y-105779000D01*
X148700443Y-105785519D01*
X148700443Y-105785519D01*
G37*
G36*
X133938674Y-75088465D02*
G01*
X133976367Y-75099899D01*
X134011103Y-75118466D01*
X134041548Y-75143452D01*
X134066534Y-75173897D01*
X134085101Y-75208633D01*
X134096535Y-75246326D01*
X134101000Y-75291661D01*
X134101000Y-76128339D01*
X134096535Y-76173674D01*
X134085101Y-76211367D01*
X134066534Y-76246103D01*
X134041548Y-76276548D01*
X134011103Y-76301534D01*
X133976367Y-76320101D01*
X133938674Y-76331535D01*
X133893339Y-76336000D01*
X132806661Y-76336000D01*
X132761326Y-76331535D01*
X132723633Y-76320101D01*
X132688897Y-76301534D01*
X132658452Y-76276548D01*
X132633466Y-76246103D01*
X132614899Y-76211367D01*
X132603465Y-76173674D01*
X132599000Y-76128339D01*
X132599000Y-75291661D01*
X132603465Y-75246326D01*
X132614899Y-75208633D01*
X132633466Y-75173897D01*
X132658452Y-75143452D01*
X132688897Y-75118466D01*
X132723633Y-75099899D01*
X132761326Y-75088465D01*
X132806661Y-75084000D01*
X133893339Y-75084000D01*
X133938674Y-75088465D01*
X133938674Y-75088465D01*
G37*
G36*
X136479148Y-75088454D02*
G01*
X136516728Y-75099854D01*
X136551364Y-75118367D01*
X136581720Y-75143280D01*
X136606633Y-75173636D01*
X136625146Y-75208272D01*
X136636546Y-75245852D01*
X136641000Y-75291075D01*
X136641000Y-76128925D01*
X136636546Y-76174148D01*
X136625146Y-76211728D01*
X136606633Y-76246364D01*
X136581720Y-76276720D01*
X136551364Y-76301633D01*
X136516728Y-76320146D01*
X136479148Y-76331546D01*
X136433925Y-76336000D01*
X135346075Y-76336000D01*
X135300852Y-76331546D01*
X135263272Y-76320146D01*
X135228636Y-76301633D01*
X135198280Y-76276720D01*
X135173367Y-76246364D01*
X135154854Y-76211728D01*
X135143454Y-76174148D01*
X135139000Y-76128925D01*
X135139000Y-75291075D01*
X135143454Y-75245852D01*
X135154854Y-75208272D01*
X135173367Y-75173636D01*
X135198280Y-75143280D01*
X135228636Y-75118367D01*
X135263272Y-75099854D01*
X135300852Y-75088454D01*
X135346075Y-75084000D01*
X136433925Y-75084000D01*
X136479148Y-75088454D01*
X136479148Y-75088454D01*
G37*
G36*
X150448674Y-73818465D02*
G01*
X150486367Y-73829899D01*
X150521103Y-73848466D01*
X150551548Y-73873452D01*
X150576534Y-73903897D01*
X150595101Y-73938633D01*
X150606535Y-73976326D01*
X150611000Y-74021661D01*
X150611000Y-74858339D01*
X150606535Y-74903674D01*
X150595101Y-74941367D01*
X150576534Y-74976103D01*
X150551548Y-75006548D01*
X150521103Y-75031534D01*
X150486367Y-75050101D01*
X150448674Y-75061535D01*
X150403339Y-75066000D01*
X149316661Y-75066000D01*
X149271326Y-75061535D01*
X149233633Y-75050101D01*
X149198897Y-75031534D01*
X149168452Y-75006548D01*
X149143466Y-74976103D01*
X149124899Y-74941367D01*
X149113465Y-74903674D01*
X149109000Y-74858339D01*
X149109000Y-74021661D01*
X149113465Y-73976326D01*
X149124899Y-73938633D01*
X149143466Y-73903897D01*
X149168452Y-73873452D01*
X149198897Y-73848466D01*
X149233633Y-73829899D01*
X149271326Y-73818465D01*
X149316661Y-73814000D01*
X150403339Y-73814000D01*
X150448674Y-73818465D01*
X150448674Y-73818465D01*
G37*
G36*
X143291000Y-74666000D02*
G01*
X141189000Y-74666000D01*
X141189000Y-73914000D01*
X143291000Y-73914000D01*
X143291000Y-74666000D01*
X143291000Y-74666000D01*
G37*
G36*
X133938674Y-73038465D02*
G01*
X133976367Y-73049899D01*
X134011103Y-73068466D01*
X134041548Y-73093452D01*
X134066534Y-73123897D01*
X134085101Y-73158633D01*
X134096535Y-73196326D01*
X134101000Y-73241661D01*
X134101000Y-74078339D01*
X134096535Y-74123674D01*
X134085101Y-74161367D01*
X134066534Y-74196103D01*
X134041548Y-74226548D01*
X134011103Y-74251534D01*
X133976367Y-74270101D01*
X133938674Y-74281535D01*
X133893339Y-74286000D01*
X132806661Y-74286000D01*
X132761326Y-74281535D01*
X132723633Y-74270101D01*
X132688897Y-74251534D01*
X132658452Y-74226548D01*
X132633466Y-74196103D01*
X132614899Y-74161367D01*
X132603465Y-74123674D01*
X132599000Y-74078339D01*
X132599000Y-73241661D01*
X132603465Y-73196326D01*
X132614899Y-73158633D01*
X132633466Y-73123897D01*
X132658452Y-73093452D01*
X132688897Y-73068466D01*
X132723633Y-73049899D01*
X132761326Y-73038465D01*
X132806661Y-73034000D01*
X133893339Y-73034000D01*
X133938674Y-73038465D01*
X133938674Y-73038465D01*
G37*
G36*
X136478674Y-73038465D02*
G01*
X136516367Y-73049899D01*
X136551103Y-73068466D01*
X136581548Y-73093452D01*
X136606534Y-73123897D01*
X136625101Y-73158633D01*
X136636535Y-73196326D01*
X136641000Y-73241661D01*
X136641000Y-74078339D01*
X136636535Y-74123674D01*
X136625101Y-74161367D01*
X136606534Y-74196103D01*
X136581548Y-74226548D01*
X136551103Y-74251534D01*
X136516367Y-74270101D01*
X136478674Y-74281535D01*
X136433339Y-74286000D01*
X135346661Y-74286000D01*
X135301326Y-74281535D01*
X135263633Y-74270101D01*
X135228897Y-74251534D01*
X135198452Y-74226548D01*
X135173466Y-74196103D01*
X135154899Y-74161367D01*
X135143465Y-74123674D01*
X135139000Y-74078339D01*
X135139000Y-73241661D01*
X135143465Y-73196326D01*
X135154899Y-73158633D01*
X135173466Y-73123897D01*
X135198452Y-73093452D01*
X135228897Y-73068466D01*
X135263633Y-73049899D01*
X135301326Y-73038465D01*
X135346661Y-73034000D01*
X136433339Y-73034000D01*
X136478674Y-73038465D01*
X136478674Y-73038465D01*
G37*
G36*
X154258674Y-73038465D02*
G01*
X154296367Y-73049899D01*
X154331103Y-73068466D01*
X154361548Y-73093452D01*
X154386534Y-73123897D01*
X154405101Y-73158633D01*
X154416535Y-73196326D01*
X154421000Y-73241661D01*
X154421000Y-74078339D01*
X154416535Y-74123674D01*
X154405101Y-74161367D01*
X154386534Y-74196103D01*
X154361548Y-74226548D01*
X154331103Y-74251534D01*
X154296367Y-74270101D01*
X154258674Y-74281535D01*
X154213339Y-74286000D01*
X153126661Y-74286000D01*
X153081326Y-74281535D01*
X153043633Y-74270101D01*
X153008897Y-74251534D01*
X152978452Y-74226548D01*
X152953466Y-74196103D01*
X152934899Y-74161367D01*
X152923465Y-74123674D01*
X152919000Y-74078339D01*
X152919000Y-73241661D01*
X152923465Y-73196326D01*
X152934899Y-73158633D01*
X152953466Y-73123897D01*
X152978452Y-73093452D01*
X153008897Y-73068466D01*
X153043633Y-73049899D01*
X153081326Y-73038465D01*
X153126661Y-73034000D01*
X154213339Y-73034000D01*
X154258674Y-73038465D01*
X154258674Y-73038465D01*
G37*
G36*
X146711000Y-73716000D02*
G01*
X144609000Y-73716000D01*
X144609000Y-72964000D01*
X146711000Y-72964000D01*
X146711000Y-73716000D01*
X146711000Y-73716000D01*
G37*
G36*
X150448674Y-71768465D02*
G01*
X150486367Y-71779899D01*
X150521103Y-71798466D01*
X150551548Y-71823452D01*
X150576534Y-71853897D01*
X150595101Y-71888633D01*
X150606535Y-71926326D01*
X150611000Y-71971661D01*
X150611000Y-72808339D01*
X150606535Y-72853674D01*
X150595101Y-72891367D01*
X150576534Y-72926103D01*
X150551548Y-72956548D01*
X150521103Y-72981534D01*
X150486367Y-73000101D01*
X150448674Y-73011535D01*
X150403339Y-73016000D01*
X149316661Y-73016000D01*
X149271326Y-73011535D01*
X149233633Y-73000101D01*
X149198897Y-72981534D01*
X149168452Y-72956548D01*
X149143466Y-72926103D01*
X149124899Y-72891367D01*
X149113465Y-72853674D01*
X149109000Y-72808339D01*
X149109000Y-71971661D01*
X149113465Y-71926326D01*
X149124899Y-71888633D01*
X149143466Y-71853897D01*
X149168452Y-71823452D01*
X149198897Y-71798466D01*
X149233633Y-71779899D01*
X149271326Y-71768465D01*
X149316661Y-71764000D01*
X150403339Y-71764000D01*
X150448674Y-71768465D01*
X150448674Y-71768465D01*
G37*
G36*
X143291000Y-72766000D02*
G01*
X141189000Y-72766000D01*
X141189000Y-72014000D01*
X143291000Y-72014000D01*
X143291000Y-72766000D01*
X143291000Y-72766000D01*
G37*
G36*
X154258674Y-70988465D02*
G01*
X154296367Y-70999899D01*
X154331103Y-71018466D01*
X154361548Y-71043452D01*
X154386534Y-71073897D01*
X154405101Y-71108633D01*
X154416535Y-71146326D01*
X154421000Y-71191661D01*
X154421000Y-72028339D01*
X154416535Y-72073674D01*
X154405101Y-72111367D01*
X154386534Y-72146103D01*
X154361548Y-72176548D01*
X154331103Y-72201534D01*
X154296367Y-72220101D01*
X154258674Y-72231535D01*
X154213339Y-72236000D01*
X153126661Y-72236000D01*
X153081326Y-72231535D01*
X153043633Y-72220101D01*
X153008897Y-72201534D01*
X152978452Y-72176548D01*
X152953466Y-72146103D01*
X152934899Y-72111367D01*
X152923465Y-72073674D01*
X152919000Y-72028339D01*
X152919000Y-71191661D01*
X152923465Y-71146326D01*
X152934899Y-71108633D01*
X152953466Y-71073897D01*
X152978452Y-71043452D01*
X153008897Y-71018466D01*
X153043633Y-70999899D01*
X153081326Y-70988465D01*
X153126661Y-70984000D01*
X154213339Y-70984000D01*
X154258674Y-70988465D01*
X154258674Y-70988465D01*
G37*
M02*
