G04 #@! TF.GenerationSoftware,KiCad,Pcbnew,(5.1.2)-2*
G04 #@! TF.CreationDate,2019-08-15T12:03:38-06:00*
G04 #@! TF.ProjectId,ps2plus,70733270-6c75-4732-9e6b-696361645f70,rev?*
G04 #@! TF.SameCoordinates,Original*
G04 #@! TF.FileFunction,Soldermask,Top*
G04 #@! TF.FilePolarity,Negative*
%FSLAX46Y46*%
G04 Gerber Fmt 4.6, Leading zero omitted, Abs format (unit mm)*
G04 Created by KiCad (PCBNEW (5.1.2)-2) date 2019-08-15 12:03:38*
%MOMM*%
%LPD*%
G04 APERTURE LIST*
%ADD10C,0.100000*%
G04 APERTURE END LIST*
D10*
G36*
X147430443Y-88005519D02*
G01*
X147496627Y-88012037D01*
X147666466Y-88063557D01*
X147822991Y-88147222D01*
X147858729Y-88176552D01*
X147960186Y-88259814D01*
X148043448Y-88361271D01*
X148072778Y-88397009D01*
X148156443Y-88553534D01*
X148207963Y-88723373D01*
X148225359Y-88900000D01*
X148207963Y-89076627D01*
X148156443Y-89246466D01*
X148072778Y-89402991D01*
X148043448Y-89438729D01*
X147960186Y-89540186D01*
X147858729Y-89623448D01*
X147822991Y-89652778D01*
X147666466Y-89736443D01*
X147496627Y-89787963D01*
X147430443Y-89794481D01*
X147364260Y-89801000D01*
X147275740Y-89801000D01*
X147209557Y-89794481D01*
X147143373Y-89787963D01*
X146973534Y-89736443D01*
X146817009Y-89652778D01*
X146781271Y-89623448D01*
X146679814Y-89540186D01*
X146596552Y-89438729D01*
X146567222Y-89402991D01*
X146483557Y-89246466D01*
X146432037Y-89076627D01*
X146414641Y-88900000D01*
X146432037Y-88723373D01*
X146483557Y-88553534D01*
X146567222Y-88397009D01*
X146596552Y-88361271D01*
X146679814Y-88259814D01*
X146781271Y-88176552D01*
X146817009Y-88147222D01*
X146973534Y-88063557D01*
X147143373Y-88012037D01*
X147209557Y-88005519D01*
X147275740Y-87999000D01*
X147364260Y-87999000D01*
X147430443Y-88005519D01*
X147430443Y-88005519D01*
G37*
G36*
X144890443Y-88005519D02*
G01*
X144956627Y-88012037D01*
X145126466Y-88063557D01*
X145282991Y-88147222D01*
X145318729Y-88176552D01*
X145420186Y-88259814D01*
X145503448Y-88361271D01*
X145532778Y-88397009D01*
X145616443Y-88553534D01*
X145667963Y-88723373D01*
X145685359Y-88900000D01*
X145667963Y-89076627D01*
X145616443Y-89246466D01*
X145532778Y-89402991D01*
X145503448Y-89438729D01*
X145420186Y-89540186D01*
X145318729Y-89623448D01*
X145282991Y-89652778D01*
X145126466Y-89736443D01*
X144956627Y-89787963D01*
X144890443Y-89794481D01*
X144824260Y-89801000D01*
X144735740Y-89801000D01*
X144669557Y-89794481D01*
X144603373Y-89787963D01*
X144433534Y-89736443D01*
X144277009Y-89652778D01*
X144241271Y-89623448D01*
X144139814Y-89540186D01*
X144056552Y-89438729D01*
X144027222Y-89402991D01*
X143943557Y-89246466D01*
X143892037Y-89076627D01*
X143874641Y-88900000D01*
X143892037Y-88723373D01*
X143943557Y-88553534D01*
X144027222Y-88397009D01*
X144056552Y-88361271D01*
X144139814Y-88259814D01*
X144241271Y-88176552D01*
X144277009Y-88147222D01*
X144433534Y-88063557D01*
X144603373Y-88012037D01*
X144669557Y-88005519D01*
X144735740Y-87999000D01*
X144824260Y-87999000D01*
X144890443Y-88005519D01*
X144890443Y-88005519D01*
G37*
G36*
X135521000Y-89801000D02*
G01*
X133719000Y-89801000D01*
X133719000Y-87999000D01*
X135521000Y-87999000D01*
X135521000Y-89801000D01*
X135521000Y-89801000D01*
G37*
G36*
X137270443Y-88005519D02*
G01*
X137336627Y-88012037D01*
X137506466Y-88063557D01*
X137662991Y-88147222D01*
X137698729Y-88176552D01*
X137800186Y-88259814D01*
X137883448Y-88361271D01*
X137912778Y-88397009D01*
X137996443Y-88553534D01*
X138047963Y-88723373D01*
X138065359Y-88900000D01*
X138047963Y-89076627D01*
X137996443Y-89246466D01*
X137912778Y-89402991D01*
X137883448Y-89438729D01*
X137800186Y-89540186D01*
X137698729Y-89623448D01*
X137662991Y-89652778D01*
X137506466Y-89736443D01*
X137336627Y-89787963D01*
X137270443Y-89794481D01*
X137204260Y-89801000D01*
X137115740Y-89801000D01*
X137049557Y-89794481D01*
X136983373Y-89787963D01*
X136813534Y-89736443D01*
X136657009Y-89652778D01*
X136621271Y-89623448D01*
X136519814Y-89540186D01*
X136436552Y-89438729D01*
X136407222Y-89402991D01*
X136323557Y-89246466D01*
X136272037Y-89076627D01*
X136254641Y-88900000D01*
X136272037Y-88723373D01*
X136323557Y-88553534D01*
X136407222Y-88397009D01*
X136436552Y-88361271D01*
X136519814Y-88259814D01*
X136621271Y-88176552D01*
X136657009Y-88147222D01*
X136813534Y-88063557D01*
X136983373Y-88012037D01*
X137049557Y-88005519D01*
X137115740Y-87999000D01*
X137204260Y-87999000D01*
X137270443Y-88005519D01*
X137270443Y-88005519D01*
G37*
G36*
X142350443Y-88005519D02*
G01*
X142416627Y-88012037D01*
X142586466Y-88063557D01*
X142742991Y-88147222D01*
X142778729Y-88176552D01*
X142880186Y-88259814D01*
X142963448Y-88361271D01*
X142992778Y-88397009D01*
X143076443Y-88553534D01*
X143127963Y-88723373D01*
X143145359Y-88900000D01*
X143127963Y-89076627D01*
X143076443Y-89246466D01*
X142992778Y-89402991D01*
X142963448Y-89438729D01*
X142880186Y-89540186D01*
X142778729Y-89623448D01*
X142742991Y-89652778D01*
X142586466Y-89736443D01*
X142416627Y-89787963D01*
X142350443Y-89794481D01*
X142284260Y-89801000D01*
X142195740Y-89801000D01*
X142129557Y-89794481D01*
X142063373Y-89787963D01*
X141893534Y-89736443D01*
X141737009Y-89652778D01*
X141701271Y-89623448D01*
X141599814Y-89540186D01*
X141516552Y-89438729D01*
X141487222Y-89402991D01*
X141403557Y-89246466D01*
X141352037Y-89076627D01*
X141334641Y-88900000D01*
X141352037Y-88723373D01*
X141403557Y-88553534D01*
X141487222Y-88397009D01*
X141516552Y-88361271D01*
X141599814Y-88259814D01*
X141701271Y-88176552D01*
X141737009Y-88147222D01*
X141893534Y-88063557D01*
X142063373Y-88012037D01*
X142129557Y-88005519D01*
X142195740Y-87999000D01*
X142284260Y-87999000D01*
X142350443Y-88005519D01*
X142350443Y-88005519D01*
G37*
G36*
X139810443Y-88005519D02*
G01*
X139876627Y-88012037D01*
X140046466Y-88063557D01*
X140202991Y-88147222D01*
X140238729Y-88176552D01*
X140340186Y-88259814D01*
X140423448Y-88361271D01*
X140452778Y-88397009D01*
X140536443Y-88553534D01*
X140587963Y-88723373D01*
X140605359Y-88900000D01*
X140587963Y-89076627D01*
X140536443Y-89246466D01*
X140452778Y-89402991D01*
X140423448Y-89438729D01*
X140340186Y-89540186D01*
X140238729Y-89623448D01*
X140202991Y-89652778D01*
X140046466Y-89736443D01*
X139876627Y-89787963D01*
X139810443Y-89794481D01*
X139744260Y-89801000D01*
X139655740Y-89801000D01*
X139589557Y-89794481D01*
X139523373Y-89787963D01*
X139353534Y-89736443D01*
X139197009Y-89652778D01*
X139161271Y-89623448D01*
X139059814Y-89540186D01*
X138976552Y-89438729D01*
X138947222Y-89402991D01*
X138863557Y-89246466D01*
X138812037Y-89076627D01*
X138794641Y-88900000D01*
X138812037Y-88723373D01*
X138863557Y-88553534D01*
X138947222Y-88397009D01*
X138976552Y-88361271D01*
X139059814Y-88259814D01*
X139161271Y-88176552D01*
X139197009Y-88147222D01*
X139353534Y-88063557D01*
X139523373Y-88012037D01*
X139589557Y-88005519D01*
X139655740Y-87999000D01*
X139744260Y-87999000D01*
X139810443Y-88005519D01*
X139810443Y-88005519D01*
G37*
G36*
X120968433Y-86264893D02*
G01*
X121058657Y-86282839D01*
X121164267Y-86326585D01*
X121313621Y-86388449D01*
X121313622Y-86388450D01*
X121543086Y-86541772D01*
X121738228Y-86736914D01*
X121840675Y-86890237D01*
X121891551Y-86966379D01*
X121953415Y-87115733D01*
X121997161Y-87221343D01*
X122051000Y-87492014D01*
X122051000Y-87767986D01*
X121997161Y-88038657D01*
X121953415Y-88144267D01*
X121891551Y-88293621D01*
X121891550Y-88293622D01*
X121738228Y-88523086D01*
X121543086Y-88718228D01*
X121389763Y-88820675D01*
X121313621Y-88871551D01*
X121164267Y-88933415D01*
X121058657Y-88977161D01*
X120968433Y-88995107D01*
X120787988Y-89031000D01*
X120512012Y-89031000D01*
X120331567Y-88995107D01*
X120241343Y-88977161D01*
X120135733Y-88933415D01*
X119986379Y-88871551D01*
X119910237Y-88820675D01*
X119756914Y-88718228D01*
X119561772Y-88523086D01*
X119408450Y-88293622D01*
X119408449Y-88293621D01*
X119346585Y-88144267D01*
X119302839Y-88038657D01*
X119249000Y-87767986D01*
X119249000Y-87492014D01*
X119302839Y-87221343D01*
X119346585Y-87115733D01*
X119408449Y-86966379D01*
X119459325Y-86890237D01*
X119561772Y-86736914D01*
X119756914Y-86541772D01*
X119986378Y-86388450D01*
X119986379Y-86388449D01*
X120135733Y-86326585D01*
X120241343Y-86282839D01*
X120331567Y-86264893D01*
X120512012Y-86229000D01*
X120787988Y-86229000D01*
X120968433Y-86264893D01*
X120968433Y-86264893D01*
G37*
G36*
X161608433Y-86264893D02*
G01*
X161698657Y-86282839D01*
X161804267Y-86326585D01*
X161953621Y-86388449D01*
X161953622Y-86388450D01*
X162183086Y-86541772D01*
X162378228Y-86736914D01*
X162480675Y-86890237D01*
X162531551Y-86966379D01*
X162593415Y-87115733D01*
X162637161Y-87221343D01*
X162691000Y-87492014D01*
X162691000Y-87767986D01*
X162637161Y-88038657D01*
X162593415Y-88144267D01*
X162531551Y-88293621D01*
X162531550Y-88293622D01*
X162378228Y-88523086D01*
X162183086Y-88718228D01*
X162029763Y-88820675D01*
X161953621Y-88871551D01*
X161804267Y-88933415D01*
X161698657Y-88977161D01*
X161608433Y-88995107D01*
X161427988Y-89031000D01*
X161152012Y-89031000D01*
X160971567Y-88995107D01*
X160881343Y-88977161D01*
X160775733Y-88933415D01*
X160626379Y-88871551D01*
X160550237Y-88820675D01*
X160396914Y-88718228D01*
X160201772Y-88523086D01*
X160048450Y-88293622D01*
X160048449Y-88293621D01*
X159986585Y-88144267D01*
X159942839Y-88038657D01*
X159889000Y-87767986D01*
X159889000Y-87492014D01*
X159942839Y-87221343D01*
X159986585Y-87115733D01*
X160048449Y-86966379D01*
X160099325Y-86890237D01*
X160201772Y-86736914D01*
X160396914Y-86541772D01*
X160626378Y-86388450D01*
X160626379Y-86388449D01*
X160775733Y-86326585D01*
X160881343Y-86282839D01*
X160971567Y-86264893D01*
X161152012Y-86229000D01*
X161427988Y-86229000D01*
X161608433Y-86264893D01*
X161608433Y-86264893D01*
G37*
G36*
X154721000Y-83601000D02*
G01*
X152619000Y-83601000D01*
X152619000Y-81499000D01*
X154721000Y-81499000D01*
X154721000Y-83601000D01*
X154721000Y-83601000D01*
G37*
G36*
X159801000Y-83601000D02*
G01*
X157699000Y-83601000D01*
X157699000Y-81499000D01*
X159801000Y-81499000D01*
X159801000Y-83601000D01*
X159801000Y-83601000D01*
G37*
G36*
X150911000Y-83601000D02*
G01*
X148809000Y-83601000D01*
X148809000Y-81499000D01*
X150911000Y-81499000D01*
X150911000Y-83601000D01*
X150911000Y-83601000D01*
G37*
G36*
X147101000Y-83601000D02*
G01*
X144999000Y-83601000D01*
X144999000Y-81499000D01*
X147101000Y-81499000D01*
X147101000Y-83601000D01*
X147101000Y-83601000D01*
G37*
G36*
X143291000Y-83601000D02*
G01*
X141189000Y-83601000D01*
X141189000Y-81499000D01*
X143291000Y-81499000D01*
X143291000Y-83601000D01*
X143291000Y-83601000D01*
G37*
G36*
X139481000Y-83601000D02*
G01*
X137379000Y-83601000D01*
X137379000Y-81499000D01*
X139481000Y-81499000D01*
X139481000Y-83601000D01*
X139481000Y-83601000D01*
G37*
G36*
X135671000Y-83601000D02*
G01*
X133569000Y-83601000D01*
X133569000Y-81499000D01*
X135671000Y-81499000D01*
X135671000Y-83601000D01*
X135671000Y-83601000D01*
G37*
G36*
X122971000Y-83601000D02*
G01*
X120869000Y-83601000D01*
X120869000Y-81499000D01*
X122971000Y-81499000D01*
X122971000Y-83601000D01*
X122971000Y-83601000D01*
G37*
G36*
X128051000Y-83601000D02*
G01*
X125949000Y-83601000D01*
X125949000Y-81499000D01*
X128051000Y-81499000D01*
X128051000Y-83601000D01*
X128051000Y-83601000D01*
G37*
G36*
X131861000Y-83601000D02*
G01*
X129759000Y-83601000D01*
X129759000Y-81499000D01*
X131861000Y-81499000D01*
X131861000Y-83601000D01*
X131861000Y-83601000D01*
G37*
G36*
X159801000Y-79791000D02*
G01*
X157699000Y-79791000D01*
X157699000Y-77689000D01*
X159801000Y-77689000D01*
X159801000Y-79791000D01*
X159801000Y-79791000D01*
G37*
G36*
X122971000Y-79791000D02*
G01*
X120869000Y-79791000D01*
X120869000Y-77689000D01*
X122971000Y-77689000D01*
X122971000Y-79791000D01*
X122971000Y-79791000D01*
G37*
G36*
X145531301Y-78359201D02*
G01*
X136971101Y-78359201D01*
X136971101Y-76784001D01*
X145531301Y-76784001D01*
X145531301Y-78359201D01*
X145531301Y-78359201D01*
G37*
G36*
X147779201Y-76111301D02*
G01*
X146204001Y-76111301D01*
X146204001Y-67551101D01*
X147779201Y-67551101D01*
X147779201Y-76111301D01*
X147779201Y-76111301D01*
G37*
G36*
X136298401Y-76111301D02*
G01*
X134723201Y-76111301D01*
X134723201Y-67551101D01*
X136298401Y-67551101D01*
X136298401Y-76111301D01*
X136298401Y-76111301D01*
G37*
G36*
X122971000Y-75981000D02*
G01*
X120869000Y-75981000D01*
X120869000Y-73879000D01*
X122971000Y-73879000D01*
X122971000Y-75981000D01*
X122971000Y-75981000D01*
G37*
G36*
X159801000Y-75981000D02*
G01*
X157699000Y-75981000D01*
X157699000Y-73879000D01*
X159801000Y-73879000D01*
X159801000Y-75981000D01*
X159801000Y-75981000D01*
G37*
G36*
X159801000Y-72171000D02*
G01*
X157699000Y-72171000D01*
X157699000Y-70069000D01*
X159801000Y-70069000D01*
X159801000Y-72171000D01*
X159801000Y-72171000D01*
G37*
G36*
X122971000Y-72171000D02*
G01*
X120869000Y-72171000D01*
X120869000Y-70069000D01*
X122971000Y-70069000D01*
X122971000Y-72171000D01*
X122971000Y-72171000D01*
G37*
G36*
X122971000Y-68361000D02*
G01*
X120869000Y-68361000D01*
X120869000Y-66259000D01*
X122971000Y-66259000D01*
X122971000Y-68361000D01*
X122971000Y-68361000D01*
G37*
G36*
X159801000Y-68361000D02*
G01*
X157699000Y-68361000D01*
X157699000Y-66259000D01*
X159801000Y-66259000D01*
X159801000Y-68361000D01*
X159801000Y-68361000D01*
G37*
G36*
X129361000Y-67811000D02*
G01*
X128459000Y-67811000D01*
X128459000Y-66809000D01*
X129361000Y-66809000D01*
X129361000Y-67811000D01*
X129361000Y-67811000D01*
G37*
G36*
X131261000Y-67811000D02*
G01*
X130359000Y-67811000D01*
X130359000Y-66809000D01*
X131261000Y-66809000D01*
X131261000Y-67811000D01*
X131261000Y-67811000D01*
G37*
G36*
X133938674Y-66198465D02*
G01*
X133976367Y-66209899D01*
X134011103Y-66228466D01*
X134041548Y-66253452D01*
X134066534Y-66283897D01*
X134085101Y-66318633D01*
X134096535Y-66356326D01*
X134101000Y-66401661D01*
X134101000Y-67238339D01*
X134096535Y-67283674D01*
X134085101Y-67321367D01*
X134066534Y-67356103D01*
X134041548Y-67386548D01*
X134011103Y-67411534D01*
X133976367Y-67430101D01*
X133938674Y-67441535D01*
X133893339Y-67446000D01*
X132806661Y-67446000D01*
X132761326Y-67441535D01*
X132723633Y-67430101D01*
X132688897Y-67411534D01*
X132658452Y-67386548D01*
X132633466Y-67356103D01*
X132614899Y-67321367D01*
X132603465Y-67283674D01*
X132599000Y-67238339D01*
X132599000Y-66401661D01*
X132603465Y-66356326D01*
X132614899Y-66318633D01*
X132633466Y-66283897D01*
X132658452Y-66253452D01*
X132688897Y-66228466D01*
X132723633Y-66209899D01*
X132761326Y-66198465D01*
X132806661Y-66194000D01*
X133893339Y-66194000D01*
X133938674Y-66198465D01*
X133938674Y-66198465D01*
G37*
G36*
X145531301Y-66878401D02*
G01*
X136971101Y-66878401D01*
X136971101Y-65303201D01*
X145531301Y-65303201D01*
X145531301Y-66878401D01*
X145531301Y-66878401D01*
G37*
G36*
X130311000Y-65811000D02*
G01*
X129409000Y-65811000D01*
X129409000Y-64809000D01*
X130311000Y-64809000D01*
X130311000Y-65811000D01*
X130311000Y-65811000D01*
G37*
G36*
X133938674Y-64148465D02*
G01*
X133976367Y-64159899D01*
X134011103Y-64178466D01*
X134041548Y-64203452D01*
X134066534Y-64233897D01*
X134085101Y-64268633D01*
X134096535Y-64306326D01*
X134101000Y-64351661D01*
X134101000Y-65188339D01*
X134096535Y-65233674D01*
X134085101Y-65271367D01*
X134066534Y-65306103D01*
X134041548Y-65336548D01*
X134011103Y-65361534D01*
X133976367Y-65380101D01*
X133938674Y-65391535D01*
X133893339Y-65396000D01*
X132806661Y-65396000D01*
X132761326Y-65391535D01*
X132723633Y-65380101D01*
X132688897Y-65361534D01*
X132658452Y-65336548D01*
X132633466Y-65306103D01*
X132614899Y-65271367D01*
X132603465Y-65233674D01*
X132599000Y-65188339D01*
X132599000Y-64351661D01*
X132603465Y-64306326D01*
X132614899Y-64268633D01*
X132633466Y-64233897D01*
X132658452Y-64203452D01*
X132688897Y-64178466D01*
X132723633Y-64159899D01*
X132761326Y-64148465D01*
X132806661Y-64144000D01*
X133893339Y-64144000D01*
X133938674Y-64148465D01*
X133938674Y-64148465D01*
G37*
G36*
X122971000Y-64551000D02*
G01*
X120869000Y-64551000D01*
X120869000Y-62449000D01*
X122971000Y-62449000D01*
X122971000Y-64551000D01*
X122971000Y-64551000D01*
G37*
G36*
X159801000Y-64551000D02*
G01*
X157699000Y-64551000D01*
X157699000Y-62449000D01*
X159801000Y-62449000D01*
X159801000Y-64551000D01*
X159801000Y-64551000D01*
G37*
G36*
X132933674Y-62118465D02*
G01*
X132971367Y-62129899D01*
X133006103Y-62148466D01*
X133036548Y-62173452D01*
X133061534Y-62203897D01*
X133080101Y-62238633D01*
X133091535Y-62276326D01*
X133096000Y-62321661D01*
X133096000Y-63408339D01*
X133091535Y-63453674D01*
X133080101Y-63491367D01*
X133061534Y-63526103D01*
X133036548Y-63556548D01*
X133006103Y-63581534D01*
X132971367Y-63600101D01*
X132933674Y-63611535D01*
X132888339Y-63616000D01*
X132051661Y-63616000D01*
X132006326Y-63611535D01*
X131968633Y-63600101D01*
X131933897Y-63581534D01*
X131903452Y-63556548D01*
X131878466Y-63526103D01*
X131859899Y-63491367D01*
X131848465Y-63453674D01*
X131844000Y-63408339D01*
X131844000Y-62321661D01*
X131848465Y-62276326D01*
X131859899Y-62238633D01*
X131878466Y-62203897D01*
X131903452Y-62173452D01*
X131933897Y-62148466D01*
X131968633Y-62129899D01*
X132006326Y-62118465D01*
X132051661Y-62114000D01*
X132888339Y-62114000D01*
X132933674Y-62118465D01*
X132933674Y-62118465D01*
G37*
G36*
X130883674Y-62118465D02*
G01*
X130921367Y-62129899D01*
X130956103Y-62148466D01*
X130986548Y-62173452D01*
X131011534Y-62203897D01*
X131030101Y-62238633D01*
X131041535Y-62276326D01*
X131046000Y-62321661D01*
X131046000Y-63408339D01*
X131041535Y-63453674D01*
X131030101Y-63491367D01*
X131011534Y-63526103D01*
X130986548Y-63556548D01*
X130956103Y-63581534D01*
X130921367Y-63600101D01*
X130883674Y-63611535D01*
X130838339Y-63616000D01*
X130001661Y-63616000D01*
X129956326Y-63611535D01*
X129918633Y-63600101D01*
X129883897Y-63581534D01*
X129853452Y-63556548D01*
X129828466Y-63526103D01*
X129809899Y-63491367D01*
X129798465Y-63453674D01*
X129794000Y-63408339D01*
X129794000Y-62321661D01*
X129798465Y-62276326D01*
X129809899Y-62238633D01*
X129828466Y-62203897D01*
X129853452Y-62173452D01*
X129883897Y-62148466D01*
X129918633Y-62129899D01*
X129956326Y-62118465D01*
X130001661Y-62114000D01*
X130838339Y-62114000D01*
X130883674Y-62118465D01*
X130883674Y-62118465D01*
G37*
G36*
X126318674Y-61118465D02*
G01*
X126356367Y-61129899D01*
X126391103Y-61148466D01*
X126421548Y-61173452D01*
X126446534Y-61203897D01*
X126465101Y-61238633D01*
X126476535Y-61276326D01*
X126481000Y-61321661D01*
X126481000Y-62158339D01*
X126476535Y-62203674D01*
X126465101Y-62241367D01*
X126446534Y-62276103D01*
X126421548Y-62306548D01*
X126391103Y-62331534D01*
X126356367Y-62350101D01*
X126318674Y-62361535D01*
X126273339Y-62366000D01*
X125186661Y-62366000D01*
X125141326Y-62361535D01*
X125103633Y-62350101D01*
X125068897Y-62331534D01*
X125038452Y-62306548D01*
X125013466Y-62276103D01*
X124994899Y-62241367D01*
X124983465Y-62203674D01*
X124979000Y-62158339D01*
X124979000Y-61321661D01*
X124983465Y-61276326D01*
X124994899Y-61238633D01*
X125013466Y-61203897D01*
X125038452Y-61173452D01*
X125068897Y-61148466D01*
X125103633Y-61129899D01*
X125141326Y-61118465D01*
X125186661Y-61114000D01*
X126273339Y-61114000D01*
X126318674Y-61118465D01*
X126318674Y-61118465D01*
G37*
G36*
X128858674Y-61118465D02*
G01*
X128896367Y-61129899D01*
X128931103Y-61148466D01*
X128961548Y-61173452D01*
X128986534Y-61203897D01*
X129005101Y-61238633D01*
X129016535Y-61276326D01*
X129021000Y-61321661D01*
X129021000Y-62158339D01*
X129016535Y-62203674D01*
X129005101Y-62241367D01*
X128986534Y-62276103D01*
X128961548Y-62306548D01*
X128931103Y-62331534D01*
X128896367Y-62350101D01*
X128858674Y-62361535D01*
X128813339Y-62366000D01*
X127726661Y-62366000D01*
X127681326Y-62361535D01*
X127643633Y-62350101D01*
X127608897Y-62331534D01*
X127578452Y-62306548D01*
X127553466Y-62276103D01*
X127534899Y-62241367D01*
X127523465Y-62203674D01*
X127519000Y-62158339D01*
X127519000Y-61321661D01*
X127523465Y-61276326D01*
X127534899Y-61238633D01*
X127553466Y-61203897D01*
X127578452Y-61173452D01*
X127608897Y-61148466D01*
X127643633Y-61129899D01*
X127681326Y-61118465D01*
X127726661Y-61114000D01*
X128813339Y-61114000D01*
X128858674Y-61118465D01*
X128858674Y-61118465D01*
G37*
G36*
X122971000Y-60741000D02*
G01*
X120869000Y-60741000D01*
X120869000Y-58639000D01*
X122971000Y-58639000D01*
X122971000Y-60741000D01*
X122971000Y-60741000D01*
G37*
G36*
X159801000Y-60741000D02*
G01*
X157699000Y-60741000D01*
X157699000Y-58639000D01*
X159801000Y-58639000D01*
X159801000Y-60741000D01*
X159801000Y-60741000D01*
G37*
G36*
X126318674Y-59068465D02*
G01*
X126356367Y-59079899D01*
X126391103Y-59098466D01*
X126421548Y-59123452D01*
X126446534Y-59153897D01*
X126465101Y-59188633D01*
X126476535Y-59226326D01*
X126481000Y-59271661D01*
X126481000Y-60108339D01*
X126476535Y-60153674D01*
X126465101Y-60191367D01*
X126446534Y-60226103D01*
X126421548Y-60256548D01*
X126391103Y-60281534D01*
X126356367Y-60300101D01*
X126318674Y-60311535D01*
X126273339Y-60316000D01*
X125186661Y-60316000D01*
X125141326Y-60311535D01*
X125103633Y-60300101D01*
X125068897Y-60281534D01*
X125038452Y-60256548D01*
X125013466Y-60226103D01*
X124994899Y-60191367D01*
X124983465Y-60153674D01*
X124979000Y-60108339D01*
X124979000Y-59271661D01*
X124983465Y-59226326D01*
X124994899Y-59188633D01*
X125013466Y-59153897D01*
X125038452Y-59123452D01*
X125068897Y-59098466D01*
X125103633Y-59079899D01*
X125141326Y-59068465D01*
X125186661Y-59064000D01*
X126273339Y-59064000D01*
X126318674Y-59068465D01*
X126318674Y-59068465D01*
G37*
G36*
X128858674Y-59068465D02*
G01*
X128896367Y-59079899D01*
X128931103Y-59098466D01*
X128961548Y-59123452D01*
X128986534Y-59153897D01*
X129005101Y-59188633D01*
X129016535Y-59226326D01*
X129021000Y-59271661D01*
X129021000Y-60108339D01*
X129016535Y-60153674D01*
X129005101Y-60191367D01*
X128986534Y-60226103D01*
X128961548Y-60256548D01*
X128931103Y-60281534D01*
X128896367Y-60300101D01*
X128858674Y-60311535D01*
X128813339Y-60316000D01*
X127726661Y-60316000D01*
X127681326Y-60311535D01*
X127643633Y-60300101D01*
X127608897Y-60281534D01*
X127578452Y-60256548D01*
X127553466Y-60226103D01*
X127534899Y-60191367D01*
X127523465Y-60153674D01*
X127519000Y-60108339D01*
X127519000Y-59271661D01*
X127523465Y-59226326D01*
X127534899Y-59188633D01*
X127553466Y-59153897D01*
X127578452Y-59123452D01*
X127608897Y-59098466D01*
X127643633Y-59079899D01*
X127681326Y-59068465D01*
X127726661Y-59064000D01*
X128813339Y-59064000D01*
X128858674Y-59068465D01*
X128858674Y-59068465D01*
G37*
G36*
X128051000Y-56931000D02*
G01*
X125949000Y-56931000D01*
X125949000Y-54829000D01*
X128051000Y-54829000D01*
X128051000Y-56931000D01*
X128051000Y-56931000D01*
G37*
G36*
X131861000Y-56931000D02*
G01*
X129759000Y-56931000D01*
X129759000Y-54829000D01*
X131861000Y-54829000D01*
X131861000Y-56931000D01*
X131861000Y-56931000D01*
G37*
G36*
X143291000Y-56931000D02*
G01*
X141189000Y-56931000D01*
X141189000Y-54829000D01*
X143291000Y-54829000D01*
X143291000Y-56931000D01*
X143291000Y-56931000D01*
G37*
G36*
X154721000Y-56931000D02*
G01*
X152619000Y-56931000D01*
X152619000Y-54829000D01*
X154721000Y-54829000D01*
X154721000Y-56931000D01*
X154721000Y-56931000D01*
G37*
G36*
X150911000Y-56931000D02*
G01*
X148809000Y-56931000D01*
X148809000Y-54829000D01*
X150911000Y-54829000D01*
X150911000Y-56931000D01*
X150911000Y-56931000D01*
G37*
G36*
X135671000Y-56931000D02*
G01*
X133569000Y-56931000D01*
X133569000Y-54829000D01*
X135671000Y-54829000D01*
X135671000Y-56931000D01*
X135671000Y-56931000D01*
G37*
G36*
X139481000Y-56931000D02*
G01*
X137379000Y-56931000D01*
X137379000Y-54829000D01*
X139481000Y-54829000D01*
X139481000Y-56931000D01*
X139481000Y-56931000D01*
G37*
G36*
X147101000Y-56931000D02*
G01*
X144999000Y-56931000D01*
X144999000Y-54829000D01*
X147101000Y-54829000D01*
X147101000Y-56931000D01*
X147101000Y-56931000D01*
G37*
G36*
X160338433Y-53244893D02*
G01*
X160428657Y-53262839D01*
X160534267Y-53306585D01*
X160683621Y-53368449D01*
X160683622Y-53368450D01*
X160913086Y-53521772D01*
X161108228Y-53716914D01*
X161210675Y-53870237D01*
X161261551Y-53946379D01*
X161367161Y-54201344D01*
X161421000Y-54472012D01*
X161421000Y-54747988D01*
X161367161Y-55018656D01*
X161261551Y-55273621D01*
X161261550Y-55273622D01*
X161108228Y-55503086D01*
X160913086Y-55698228D01*
X160759763Y-55800675D01*
X160683621Y-55851551D01*
X160534267Y-55913415D01*
X160428657Y-55957161D01*
X160338433Y-55975107D01*
X160157988Y-56011000D01*
X159882012Y-56011000D01*
X159701567Y-55975107D01*
X159611343Y-55957161D01*
X159505733Y-55913415D01*
X159356379Y-55851551D01*
X159280237Y-55800675D01*
X159126914Y-55698228D01*
X158931772Y-55503086D01*
X158778450Y-55273622D01*
X158778449Y-55273621D01*
X158672839Y-55018656D01*
X158619000Y-54747988D01*
X158619000Y-54472012D01*
X158672839Y-54201344D01*
X158778449Y-53946379D01*
X158829325Y-53870237D01*
X158931772Y-53716914D01*
X159126914Y-53521772D01*
X159356378Y-53368450D01*
X159356379Y-53368449D01*
X159505733Y-53306585D01*
X159611343Y-53262839D01*
X159701567Y-53244893D01*
X159882012Y-53209000D01*
X160157988Y-53209000D01*
X160338433Y-53244893D01*
X160338433Y-53244893D01*
G37*
G36*
X120968433Y-53244893D02*
G01*
X121058657Y-53262839D01*
X121164267Y-53306585D01*
X121313621Y-53368449D01*
X121313622Y-53368450D01*
X121543086Y-53521772D01*
X121738228Y-53716914D01*
X121840675Y-53870237D01*
X121891551Y-53946379D01*
X121997161Y-54201344D01*
X122051000Y-54472012D01*
X122051000Y-54747988D01*
X121997161Y-55018656D01*
X121891551Y-55273621D01*
X121891550Y-55273622D01*
X121738228Y-55503086D01*
X121543086Y-55698228D01*
X121389763Y-55800675D01*
X121313621Y-55851551D01*
X121164267Y-55913415D01*
X121058657Y-55957161D01*
X120968433Y-55975107D01*
X120787988Y-56011000D01*
X120512012Y-56011000D01*
X120331567Y-55975107D01*
X120241343Y-55957161D01*
X120135733Y-55913415D01*
X119986379Y-55851551D01*
X119910237Y-55800675D01*
X119756914Y-55698228D01*
X119561772Y-55503086D01*
X119408450Y-55273622D01*
X119408449Y-55273621D01*
X119302839Y-55018656D01*
X119249000Y-54747988D01*
X119249000Y-54472012D01*
X119302839Y-54201344D01*
X119408449Y-53946379D01*
X119459325Y-53870237D01*
X119561772Y-53716914D01*
X119756914Y-53521772D01*
X119986378Y-53368450D01*
X119986379Y-53368449D01*
X120135733Y-53306585D01*
X120241343Y-53262839D01*
X120331567Y-53244893D01*
X120512012Y-53209000D01*
X120787988Y-53209000D01*
X120968433Y-53244893D01*
X120968433Y-53244893D01*
G37*
M02*
