G04 #@! TF.GenerationSoftware,KiCad,Pcbnew,(5.1.2)-2*
G04 #@! TF.CreationDate,2019-08-15T12:03:38-06:00*
G04 #@! TF.ProjectId,ps2plus,70733270-6c75-4732-9e6b-696361645f70,rev?*
G04 #@! TF.SameCoordinates,Original*
G04 #@! TF.FileFunction,Copper,L2,Bot*
G04 #@! TF.FilePolarity,Positive*
%FSLAX46Y46*%
G04 Gerber Fmt 4.6, Leading zero omitted, Abs format (unit mm)*
G04 Created by KiCad (PCBNEW (5.1.2)-2) date 2019-08-15 12:03:38*
%MOMM*%
%LPD*%
G04 APERTURE LIST*
%ADD10R,1.700000X1.700000*%
%ADD11O,1.700000X1.700000*%
%ADD12C,0.800000*%
%ADD13C,0.250000*%
%ADD14C,0.254000*%
G04 APERTURE END LIST*
D10*
X134620000Y-88900000D03*
D11*
X137160000Y-88900000D03*
X139700000Y-88900000D03*
X142240000Y-88900000D03*
X144780000Y-88900000D03*
X147320000Y-88900000D03*
D12*
X149860000Y-71120000D03*
X133350000Y-71120000D03*
X130810000Y-59690000D03*
X125730000Y-67310000D03*
D13*
X158750000Y-71120000D02*
X149860000Y-71120000D01*
X133350000Y-71120000D02*
X130810000Y-68580000D01*
D14*
G36*
X164440001Y-90780000D02*
G01*
X117500000Y-90780000D01*
X117500000Y-87434495D01*
X118665000Y-87434495D01*
X118665000Y-87825505D01*
X118741282Y-88209003D01*
X118890915Y-88570250D01*
X119108149Y-88895364D01*
X119384636Y-89171851D01*
X119709750Y-89389085D01*
X120070997Y-89538718D01*
X120454495Y-89615000D01*
X120845505Y-89615000D01*
X121229003Y-89538718D01*
X121590250Y-89389085D01*
X121915364Y-89171851D01*
X122191851Y-88895364D01*
X122409085Y-88570250D01*
X122558718Y-88209003D01*
X122590345Y-88050000D01*
X133131928Y-88050000D01*
X133131928Y-89750000D01*
X133144188Y-89874482D01*
X133180498Y-89994180D01*
X133239463Y-90104494D01*
X133318815Y-90201185D01*
X133415506Y-90280537D01*
X133525820Y-90339502D01*
X133645518Y-90375812D01*
X133770000Y-90388072D01*
X135470000Y-90388072D01*
X135594482Y-90375812D01*
X135714180Y-90339502D01*
X135824494Y-90280537D01*
X135921185Y-90201185D01*
X136000537Y-90104494D01*
X136059502Y-89994180D01*
X136080393Y-89925313D01*
X136104866Y-89955134D01*
X136330986Y-90140706D01*
X136588966Y-90278599D01*
X136868889Y-90363513D01*
X137087050Y-90385000D01*
X137232950Y-90385000D01*
X137451111Y-90363513D01*
X137731034Y-90278599D01*
X137989014Y-90140706D01*
X138215134Y-89955134D01*
X138400706Y-89729014D01*
X138430000Y-89674209D01*
X138459294Y-89729014D01*
X138644866Y-89955134D01*
X138870986Y-90140706D01*
X139128966Y-90278599D01*
X139408889Y-90363513D01*
X139627050Y-90385000D01*
X139772950Y-90385000D01*
X139991111Y-90363513D01*
X140271034Y-90278599D01*
X140529014Y-90140706D01*
X140755134Y-89955134D01*
X140940706Y-89729014D01*
X140975201Y-89664477D01*
X141044822Y-89781355D01*
X141239731Y-89997588D01*
X141473080Y-90171641D01*
X141735901Y-90296825D01*
X141883110Y-90341476D01*
X142113000Y-90220155D01*
X142113000Y-89027000D01*
X142093000Y-89027000D01*
X142093000Y-88773000D01*
X142113000Y-88773000D01*
X142113000Y-87579845D01*
X142367000Y-87579845D01*
X142367000Y-88773000D01*
X142387000Y-88773000D01*
X142387000Y-89027000D01*
X142367000Y-89027000D01*
X142367000Y-90220155D01*
X142596890Y-90341476D01*
X142744099Y-90296825D01*
X143006920Y-90171641D01*
X143240269Y-89997588D01*
X143435178Y-89781355D01*
X143504799Y-89664477D01*
X143539294Y-89729014D01*
X143724866Y-89955134D01*
X143950986Y-90140706D01*
X144208966Y-90278599D01*
X144488889Y-90363513D01*
X144707050Y-90385000D01*
X144852950Y-90385000D01*
X145071111Y-90363513D01*
X145351034Y-90278599D01*
X145609014Y-90140706D01*
X145835134Y-89955134D01*
X146020706Y-89729014D01*
X146050000Y-89674209D01*
X146079294Y-89729014D01*
X146264866Y-89955134D01*
X146490986Y-90140706D01*
X146748966Y-90278599D01*
X147028889Y-90363513D01*
X147247050Y-90385000D01*
X147392950Y-90385000D01*
X147611111Y-90363513D01*
X147891034Y-90278599D01*
X148149014Y-90140706D01*
X148375134Y-89955134D01*
X148560706Y-89729014D01*
X148698599Y-89471034D01*
X148783513Y-89191111D01*
X148812185Y-88900000D01*
X148783513Y-88608889D01*
X148698599Y-88328966D01*
X148560706Y-88070986D01*
X148375134Y-87844866D01*
X148149014Y-87659294D01*
X147891034Y-87521401D01*
X147611111Y-87436487D01*
X147590886Y-87434495D01*
X159305000Y-87434495D01*
X159305000Y-87825505D01*
X159381282Y-88209003D01*
X159530915Y-88570250D01*
X159748149Y-88895364D01*
X160024636Y-89171851D01*
X160349750Y-89389085D01*
X160710997Y-89538718D01*
X161094495Y-89615000D01*
X161485505Y-89615000D01*
X161869003Y-89538718D01*
X162230250Y-89389085D01*
X162555364Y-89171851D01*
X162831851Y-88895364D01*
X163049085Y-88570250D01*
X163198718Y-88209003D01*
X163275000Y-87825505D01*
X163275000Y-87434495D01*
X163198718Y-87050997D01*
X163049085Y-86689750D01*
X162831851Y-86364636D01*
X162555364Y-86088149D01*
X162230250Y-85870915D01*
X161869003Y-85721282D01*
X161485505Y-85645000D01*
X161094495Y-85645000D01*
X160710997Y-85721282D01*
X160349750Y-85870915D01*
X160024636Y-86088149D01*
X159748149Y-86364636D01*
X159530915Y-86689750D01*
X159381282Y-87050997D01*
X159305000Y-87434495D01*
X147590886Y-87434495D01*
X147392950Y-87415000D01*
X147247050Y-87415000D01*
X147028889Y-87436487D01*
X146748966Y-87521401D01*
X146490986Y-87659294D01*
X146264866Y-87844866D01*
X146079294Y-88070986D01*
X146050000Y-88125791D01*
X146020706Y-88070986D01*
X145835134Y-87844866D01*
X145609014Y-87659294D01*
X145351034Y-87521401D01*
X145071111Y-87436487D01*
X144852950Y-87415000D01*
X144707050Y-87415000D01*
X144488889Y-87436487D01*
X144208966Y-87521401D01*
X143950986Y-87659294D01*
X143724866Y-87844866D01*
X143539294Y-88070986D01*
X143504799Y-88135523D01*
X143435178Y-88018645D01*
X143240269Y-87802412D01*
X143006920Y-87628359D01*
X142744099Y-87503175D01*
X142596890Y-87458524D01*
X142367000Y-87579845D01*
X142113000Y-87579845D01*
X141883110Y-87458524D01*
X141735901Y-87503175D01*
X141473080Y-87628359D01*
X141239731Y-87802412D01*
X141044822Y-88018645D01*
X140975201Y-88135523D01*
X140940706Y-88070986D01*
X140755134Y-87844866D01*
X140529014Y-87659294D01*
X140271034Y-87521401D01*
X139991111Y-87436487D01*
X139772950Y-87415000D01*
X139627050Y-87415000D01*
X139408889Y-87436487D01*
X139128966Y-87521401D01*
X138870986Y-87659294D01*
X138644866Y-87844866D01*
X138459294Y-88070986D01*
X138430000Y-88125791D01*
X138400706Y-88070986D01*
X138215134Y-87844866D01*
X137989014Y-87659294D01*
X137731034Y-87521401D01*
X137451111Y-87436487D01*
X137232950Y-87415000D01*
X137087050Y-87415000D01*
X136868889Y-87436487D01*
X136588966Y-87521401D01*
X136330986Y-87659294D01*
X136104866Y-87844866D01*
X136080393Y-87874687D01*
X136059502Y-87805820D01*
X136000537Y-87695506D01*
X135921185Y-87598815D01*
X135824494Y-87519463D01*
X135714180Y-87460498D01*
X135594482Y-87424188D01*
X135470000Y-87411928D01*
X133770000Y-87411928D01*
X133645518Y-87424188D01*
X133525820Y-87460498D01*
X133415506Y-87519463D01*
X133318815Y-87598815D01*
X133239463Y-87695506D01*
X133180498Y-87805820D01*
X133144188Y-87925518D01*
X133131928Y-88050000D01*
X122590345Y-88050000D01*
X122635000Y-87825505D01*
X122635000Y-87434495D01*
X122558718Y-87050997D01*
X122409085Y-86689750D01*
X122191851Y-86364636D01*
X121915364Y-86088149D01*
X121590250Y-85870915D01*
X121229003Y-85721282D01*
X120845505Y-85645000D01*
X120454495Y-85645000D01*
X120070997Y-85721282D01*
X119709750Y-85870915D01*
X119384636Y-86088149D01*
X119108149Y-86364636D01*
X118890915Y-86689750D01*
X118741282Y-87050997D01*
X118665000Y-87434495D01*
X117500000Y-87434495D01*
X117500000Y-66323501D01*
X132514049Y-66323501D01*
X132514049Y-69143501D01*
X134595954Y-69143501D01*
X134595954Y-66323501D01*
X132514049Y-66323501D01*
X117500000Y-66323501D01*
X117500000Y-54414495D01*
X118665000Y-54414495D01*
X118665000Y-54805505D01*
X118741282Y-55189003D01*
X118890915Y-55550250D01*
X119108149Y-55875364D01*
X119384636Y-56151851D01*
X119709750Y-56369085D01*
X120070997Y-56518718D01*
X120454495Y-56595000D01*
X120845505Y-56595000D01*
X121229003Y-56518718D01*
X121590250Y-56369085D01*
X121915364Y-56151851D01*
X122191851Y-55875364D01*
X122409085Y-55550250D01*
X122558718Y-55189003D01*
X122635000Y-54805505D01*
X122635000Y-54414495D01*
X158035000Y-54414495D01*
X158035000Y-54805505D01*
X158111282Y-55189003D01*
X158260915Y-55550250D01*
X158478149Y-55875364D01*
X158754636Y-56151851D01*
X159079750Y-56369085D01*
X159440997Y-56518718D01*
X159824495Y-56595000D01*
X160215505Y-56595000D01*
X160599003Y-56518718D01*
X160960250Y-56369085D01*
X161285364Y-56151851D01*
X161561851Y-55875364D01*
X161779085Y-55550250D01*
X161928718Y-55189003D01*
X162005000Y-54805505D01*
X162005000Y-54414495D01*
X161928718Y-54030997D01*
X161779085Y-53669750D01*
X161561851Y-53344636D01*
X161285364Y-53068149D01*
X160960250Y-52850915D01*
X160599003Y-52701282D01*
X160215505Y-52625000D01*
X159824495Y-52625000D01*
X159440997Y-52701282D01*
X159079750Y-52850915D01*
X158754636Y-53068149D01*
X158478149Y-53344636D01*
X158260915Y-53669750D01*
X158111282Y-54030997D01*
X158035000Y-54414495D01*
X122635000Y-54414495D01*
X122558718Y-54030997D01*
X122409085Y-53669750D01*
X122191851Y-53344636D01*
X121915364Y-53068149D01*
X121590250Y-52850915D01*
X121229003Y-52701282D01*
X120845505Y-52625000D01*
X120454495Y-52625000D01*
X120070997Y-52701282D01*
X119709750Y-52850915D01*
X119384636Y-53068149D01*
X119108149Y-53344636D01*
X118890915Y-53669750D01*
X118741282Y-54030997D01*
X118665000Y-54414495D01*
X117500000Y-54414495D01*
X117500000Y-51460000D01*
X164440000Y-51460000D01*
X164440001Y-90780000D01*
X164440001Y-90780000D01*
G37*
X164440001Y-90780000D02*
X117500000Y-90780000D01*
X117500000Y-87434495D01*
X118665000Y-87434495D01*
X118665000Y-87825505D01*
X118741282Y-88209003D01*
X118890915Y-88570250D01*
X119108149Y-88895364D01*
X119384636Y-89171851D01*
X119709750Y-89389085D01*
X120070997Y-89538718D01*
X120454495Y-89615000D01*
X120845505Y-89615000D01*
X121229003Y-89538718D01*
X121590250Y-89389085D01*
X121915364Y-89171851D01*
X122191851Y-88895364D01*
X122409085Y-88570250D01*
X122558718Y-88209003D01*
X122590345Y-88050000D01*
X133131928Y-88050000D01*
X133131928Y-89750000D01*
X133144188Y-89874482D01*
X133180498Y-89994180D01*
X133239463Y-90104494D01*
X133318815Y-90201185D01*
X133415506Y-90280537D01*
X133525820Y-90339502D01*
X133645518Y-90375812D01*
X133770000Y-90388072D01*
X135470000Y-90388072D01*
X135594482Y-90375812D01*
X135714180Y-90339502D01*
X135824494Y-90280537D01*
X135921185Y-90201185D01*
X136000537Y-90104494D01*
X136059502Y-89994180D01*
X136080393Y-89925313D01*
X136104866Y-89955134D01*
X136330986Y-90140706D01*
X136588966Y-90278599D01*
X136868889Y-90363513D01*
X137087050Y-90385000D01*
X137232950Y-90385000D01*
X137451111Y-90363513D01*
X137731034Y-90278599D01*
X137989014Y-90140706D01*
X138215134Y-89955134D01*
X138400706Y-89729014D01*
X138430000Y-89674209D01*
X138459294Y-89729014D01*
X138644866Y-89955134D01*
X138870986Y-90140706D01*
X139128966Y-90278599D01*
X139408889Y-90363513D01*
X139627050Y-90385000D01*
X139772950Y-90385000D01*
X139991111Y-90363513D01*
X140271034Y-90278599D01*
X140529014Y-90140706D01*
X140755134Y-89955134D01*
X140940706Y-89729014D01*
X140975201Y-89664477D01*
X141044822Y-89781355D01*
X141239731Y-89997588D01*
X141473080Y-90171641D01*
X141735901Y-90296825D01*
X141883110Y-90341476D01*
X142113000Y-90220155D01*
X142113000Y-89027000D01*
X142093000Y-89027000D01*
X142093000Y-88773000D01*
X142113000Y-88773000D01*
X142113000Y-87579845D01*
X142367000Y-87579845D01*
X142367000Y-88773000D01*
X142387000Y-88773000D01*
X142387000Y-89027000D01*
X142367000Y-89027000D01*
X142367000Y-90220155D01*
X142596890Y-90341476D01*
X142744099Y-90296825D01*
X143006920Y-90171641D01*
X143240269Y-89997588D01*
X143435178Y-89781355D01*
X143504799Y-89664477D01*
X143539294Y-89729014D01*
X143724866Y-89955134D01*
X143950986Y-90140706D01*
X144208966Y-90278599D01*
X144488889Y-90363513D01*
X144707050Y-90385000D01*
X144852950Y-90385000D01*
X145071111Y-90363513D01*
X145351034Y-90278599D01*
X145609014Y-90140706D01*
X145835134Y-89955134D01*
X146020706Y-89729014D01*
X146050000Y-89674209D01*
X146079294Y-89729014D01*
X146264866Y-89955134D01*
X146490986Y-90140706D01*
X146748966Y-90278599D01*
X147028889Y-90363513D01*
X147247050Y-90385000D01*
X147392950Y-90385000D01*
X147611111Y-90363513D01*
X147891034Y-90278599D01*
X148149014Y-90140706D01*
X148375134Y-89955134D01*
X148560706Y-89729014D01*
X148698599Y-89471034D01*
X148783513Y-89191111D01*
X148812185Y-88900000D01*
X148783513Y-88608889D01*
X148698599Y-88328966D01*
X148560706Y-88070986D01*
X148375134Y-87844866D01*
X148149014Y-87659294D01*
X147891034Y-87521401D01*
X147611111Y-87436487D01*
X147590886Y-87434495D01*
X159305000Y-87434495D01*
X159305000Y-87825505D01*
X159381282Y-88209003D01*
X159530915Y-88570250D01*
X159748149Y-88895364D01*
X160024636Y-89171851D01*
X160349750Y-89389085D01*
X160710997Y-89538718D01*
X161094495Y-89615000D01*
X161485505Y-89615000D01*
X161869003Y-89538718D01*
X162230250Y-89389085D01*
X162555364Y-89171851D01*
X162831851Y-88895364D01*
X163049085Y-88570250D01*
X163198718Y-88209003D01*
X163275000Y-87825505D01*
X163275000Y-87434495D01*
X163198718Y-87050997D01*
X163049085Y-86689750D01*
X162831851Y-86364636D01*
X162555364Y-86088149D01*
X162230250Y-85870915D01*
X161869003Y-85721282D01*
X161485505Y-85645000D01*
X161094495Y-85645000D01*
X160710997Y-85721282D01*
X160349750Y-85870915D01*
X160024636Y-86088149D01*
X159748149Y-86364636D01*
X159530915Y-86689750D01*
X159381282Y-87050997D01*
X159305000Y-87434495D01*
X147590886Y-87434495D01*
X147392950Y-87415000D01*
X147247050Y-87415000D01*
X147028889Y-87436487D01*
X146748966Y-87521401D01*
X146490986Y-87659294D01*
X146264866Y-87844866D01*
X146079294Y-88070986D01*
X146050000Y-88125791D01*
X146020706Y-88070986D01*
X145835134Y-87844866D01*
X145609014Y-87659294D01*
X145351034Y-87521401D01*
X145071111Y-87436487D01*
X144852950Y-87415000D01*
X144707050Y-87415000D01*
X144488889Y-87436487D01*
X144208966Y-87521401D01*
X143950986Y-87659294D01*
X143724866Y-87844866D01*
X143539294Y-88070986D01*
X143504799Y-88135523D01*
X143435178Y-88018645D01*
X143240269Y-87802412D01*
X143006920Y-87628359D01*
X142744099Y-87503175D01*
X142596890Y-87458524D01*
X142367000Y-87579845D01*
X142113000Y-87579845D01*
X141883110Y-87458524D01*
X141735901Y-87503175D01*
X141473080Y-87628359D01*
X141239731Y-87802412D01*
X141044822Y-88018645D01*
X140975201Y-88135523D01*
X140940706Y-88070986D01*
X140755134Y-87844866D01*
X140529014Y-87659294D01*
X140271034Y-87521401D01*
X139991111Y-87436487D01*
X139772950Y-87415000D01*
X139627050Y-87415000D01*
X139408889Y-87436487D01*
X139128966Y-87521401D01*
X138870986Y-87659294D01*
X138644866Y-87844866D01*
X138459294Y-88070986D01*
X138430000Y-88125791D01*
X138400706Y-88070986D01*
X138215134Y-87844866D01*
X137989014Y-87659294D01*
X137731034Y-87521401D01*
X137451111Y-87436487D01*
X137232950Y-87415000D01*
X137087050Y-87415000D01*
X136868889Y-87436487D01*
X136588966Y-87521401D01*
X136330986Y-87659294D01*
X136104866Y-87844866D01*
X136080393Y-87874687D01*
X136059502Y-87805820D01*
X136000537Y-87695506D01*
X135921185Y-87598815D01*
X135824494Y-87519463D01*
X135714180Y-87460498D01*
X135594482Y-87424188D01*
X135470000Y-87411928D01*
X133770000Y-87411928D01*
X133645518Y-87424188D01*
X133525820Y-87460498D01*
X133415506Y-87519463D01*
X133318815Y-87598815D01*
X133239463Y-87695506D01*
X133180498Y-87805820D01*
X133144188Y-87925518D01*
X133131928Y-88050000D01*
X122590345Y-88050000D01*
X122635000Y-87825505D01*
X122635000Y-87434495D01*
X122558718Y-87050997D01*
X122409085Y-86689750D01*
X122191851Y-86364636D01*
X121915364Y-86088149D01*
X121590250Y-85870915D01*
X121229003Y-85721282D01*
X120845505Y-85645000D01*
X120454495Y-85645000D01*
X120070997Y-85721282D01*
X119709750Y-85870915D01*
X119384636Y-86088149D01*
X119108149Y-86364636D01*
X118890915Y-86689750D01*
X118741282Y-87050997D01*
X118665000Y-87434495D01*
X117500000Y-87434495D01*
X117500000Y-66323501D01*
X132514049Y-66323501D01*
X132514049Y-69143501D01*
X134595954Y-69143501D01*
X134595954Y-66323501D01*
X132514049Y-66323501D01*
X117500000Y-66323501D01*
X117500000Y-54414495D01*
X118665000Y-54414495D01*
X118665000Y-54805505D01*
X118741282Y-55189003D01*
X118890915Y-55550250D01*
X119108149Y-55875364D01*
X119384636Y-56151851D01*
X119709750Y-56369085D01*
X120070997Y-56518718D01*
X120454495Y-56595000D01*
X120845505Y-56595000D01*
X121229003Y-56518718D01*
X121590250Y-56369085D01*
X121915364Y-56151851D01*
X122191851Y-55875364D01*
X122409085Y-55550250D01*
X122558718Y-55189003D01*
X122635000Y-54805505D01*
X122635000Y-54414495D01*
X158035000Y-54414495D01*
X158035000Y-54805505D01*
X158111282Y-55189003D01*
X158260915Y-55550250D01*
X158478149Y-55875364D01*
X158754636Y-56151851D01*
X159079750Y-56369085D01*
X159440997Y-56518718D01*
X159824495Y-56595000D01*
X160215505Y-56595000D01*
X160599003Y-56518718D01*
X160960250Y-56369085D01*
X161285364Y-56151851D01*
X161561851Y-55875364D01*
X161779085Y-55550250D01*
X161928718Y-55189003D01*
X162005000Y-54805505D01*
X162005000Y-54414495D01*
X161928718Y-54030997D01*
X161779085Y-53669750D01*
X161561851Y-53344636D01*
X161285364Y-53068149D01*
X160960250Y-52850915D01*
X160599003Y-52701282D01*
X160215505Y-52625000D01*
X159824495Y-52625000D01*
X159440997Y-52701282D01*
X159079750Y-52850915D01*
X158754636Y-53068149D01*
X158478149Y-53344636D01*
X158260915Y-53669750D01*
X158111282Y-54030997D01*
X158035000Y-54414495D01*
X122635000Y-54414495D01*
X122558718Y-54030997D01*
X122409085Y-53669750D01*
X122191851Y-53344636D01*
X121915364Y-53068149D01*
X121590250Y-52850915D01*
X121229003Y-52701282D01*
X120845505Y-52625000D01*
X120454495Y-52625000D01*
X120070997Y-52701282D01*
X119709750Y-52850915D01*
X119384636Y-53068149D01*
X119108149Y-53344636D01*
X118890915Y-53669750D01*
X118741282Y-54030997D01*
X118665000Y-54414495D01*
X117500000Y-54414495D01*
X117500000Y-51460000D01*
X164440000Y-51460000D01*
X164440001Y-90780000D01*
M02*
