G04 #@! TF.GenerationSoftware,KiCad,Pcbnew,(5.1.2)-2*
G04 #@! TF.CreationDate,2019-07-31T13:06:10-06:00*
G04 #@! TF.ProjectId,ps2plus,70733270-6c75-4732-9e6b-696361645f70,rev?*
G04 #@! TF.SameCoordinates,Original*
G04 #@! TF.FileFunction,Legend,Top*
G04 #@! TF.FilePolarity,Positive*
%FSLAX46Y46*%
G04 Gerber Fmt 4.6, Leading zero omitted, Abs format (unit mm)*
G04 Created by KiCad (PCBNEW (5.1.2)-2) date 2019-07-31 13:06:10*
%MOMM*%
%LPD*%
G04 APERTURE LIST*
%ADD10C,0.120000*%
%ADD11C,0.152400*%
%ADD12C,0.150000*%
%ADD13C,0.050000*%
G04 APERTURE END LIST*
D10*
X152400000Y-109220000D02*
X149860000Y-109220000D01*
X151130000Y-107950000D02*
X152400000Y-109220000D01*
X149860000Y-109220000D02*
X151130000Y-107950000D01*
X137100000Y-108010000D02*
X137100000Y-106680000D01*
X138430000Y-108010000D02*
X137100000Y-108010000D01*
X139700000Y-108010000D02*
X139700000Y-105350000D01*
X139700000Y-105350000D02*
X152460000Y-105350000D01*
X139700000Y-108010000D02*
X152460000Y-108010000D01*
X152460000Y-108010000D02*
X152460000Y-105350000D01*
X156280000Y-101530000D02*
X156280000Y-99130000D01*
X158680000Y-101530000D02*
X156280000Y-101530000D01*
X158680000Y-99130000D02*
X158680000Y-101530000D01*
X156280000Y-99130000D02*
X158680000Y-99130000D01*
D11*
X144396600Y-75301200D02*
X144396600Y-75555200D01*
X144015600Y-75301200D02*
X144396600Y-75301200D01*
X144015600Y-75555200D02*
X144015600Y-75301200D01*
X151737200Y-80889200D02*
X151737200Y-80508200D01*
X151991200Y-80889200D02*
X151737200Y-80889200D01*
X151991200Y-80508200D02*
X151991200Y-80889200D01*
X147597000Y-89271200D02*
X147597000Y-89017200D01*
X147216000Y-89271200D02*
X147597000Y-89271200D01*
X147216000Y-89017200D02*
X147216000Y-89271200D01*
X138275200Y-85664400D02*
X138275200Y-85283400D01*
X138021200Y-85664400D02*
X138275200Y-85664400D01*
X138021200Y-85283400D02*
X138021200Y-85664400D01*
X139951600Y-86858200D02*
X139951600Y-87340800D01*
X139951600Y-77231600D02*
X139951600Y-77714200D01*
X150060800Y-77231600D02*
X149578200Y-77231600D01*
X150060800Y-87340800D02*
X150060800Y-86858200D01*
X139951600Y-87340800D02*
X140434200Y-87340800D01*
X140307200Y-78146000D02*
X140866000Y-77587200D01*
X149578200Y-87340800D02*
X150060800Y-87340800D01*
X150060800Y-77714200D02*
X150060800Y-77231600D01*
X140434200Y-77231600D02*
X139951600Y-77231600D01*
D10*
X156280000Y-97720000D02*
X156280000Y-95320000D01*
X158680000Y-97720000D02*
X156280000Y-97720000D01*
X158680000Y-95320000D02*
X158680000Y-97720000D01*
X156280000Y-95320000D02*
X158680000Y-95320000D01*
X156280000Y-93910000D02*
X156280000Y-91510000D01*
X158680000Y-93910000D02*
X156280000Y-93910000D01*
X158680000Y-91510000D02*
X158680000Y-93910000D01*
X156280000Y-91510000D02*
X158680000Y-91510000D01*
X156280000Y-90100000D02*
X156280000Y-87700000D01*
X158680000Y-90100000D02*
X156280000Y-90100000D01*
X158680000Y-87700000D02*
X158680000Y-90100000D01*
X156280000Y-87700000D02*
X158680000Y-87700000D01*
X129610000Y-78670000D02*
X129610000Y-76270000D01*
X132010000Y-78670000D02*
X129610000Y-78670000D01*
X132010000Y-76270000D02*
X132010000Y-78670000D01*
X129610000Y-76270000D02*
X132010000Y-76270000D01*
X156280000Y-82480000D02*
X156280000Y-80080000D01*
X158680000Y-82480000D02*
X156280000Y-82480000D01*
X158680000Y-80080000D02*
X158680000Y-82480000D01*
X156280000Y-80080000D02*
X158680000Y-80080000D01*
X156280000Y-78670000D02*
X156280000Y-76270000D01*
X158680000Y-78670000D02*
X156280000Y-78670000D01*
X158680000Y-76270000D02*
X158680000Y-78670000D01*
X156280000Y-76270000D02*
X158680000Y-76270000D01*
X156280000Y-74860000D02*
X156280000Y-72460000D01*
X158680000Y-74860000D02*
X156280000Y-74860000D01*
X158680000Y-72460000D02*
X158680000Y-74860000D01*
X156280000Y-72460000D02*
X158680000Y-72460000D01*
X152470000Y-101530000D02*
X152470000Y-99130000D01*
X154870000Y-101530000D02*
X152470000Y-101530000D01*
X154870000Y-99130000D02*
X154870000Y-101530000D01*
X152470000Y-99130000D02*
X154870000Y-99130000D01*
X156280000Y-67240000D02*
X156280000Y-64840000D01*
X158680000Y-67240000D02*
X156280000Y-67240000D01*
X158680000Y-64840000D02*
X158680000Y-67240000D01*
X156280000Y-64840000D02*
X158680000Y-64840000D01*
X148660000Y-101530000D02*
X148660000Y-99130000D01*
X151060000Y-101530000D02*
X148660000Y-101530000D01*
X151060000Y-99130000D02*
X151060000Y-101530000D01*
X148660000Y-99130000D02*
X151060000Y-99130000D01*
X152470000Y-67240000D02*
X152470000Y-64840000D01*
X154870000Y-67240000D02*
X152470000Y-67240000D01*
X154870000Y-64840000D02*
X154870000Y-67240000D01*
X152470000Y-64840000D02*
X154870000Y-64840000D01*
X144850000Y-101530000D02*
X144850000Y-99130000D01*
X147250000Y-101530000D02*
X144850000Y-101530000D01*
X147250000Y-99130000D02*
X147250000Y-101530000D01*
X144850000Y-99130000D02*
X147250000Y-99130000D01*
X148660000Y-67240000D02*
X148660000Y-64840000D01*
X151060000Y-67240000D02*
X148660000Y-67240000D01*
X151060000Y-64840000D02*
X151060000Y-67240000D01*
X148660000Y-64840000D02*
X151060000Y-64840000D01*
X144850000Y-67240000D02*
X144850000Y-64840000D01*
X147250000Y-67240000D02*
X144850000Y-67240000D01*
X147250000Y-64840000D02*
X147250000Y-67240000D01*
X144850000Y-64840000D02*
X147250000Y-64840000D01*
X141040000Y-101530000D02*
X141040000Y-99130000D01*
X143440000Y-101530000D02*
X141040000Y-101530000D01*
X143440000Y-99130000D02*
X143440000Y-101530000D01*
X141040000Y-99130000D02*
X143440000Y-99130000D01*
X137230000Y-101530000D02*
X137230000Y-99130000D01*
X139630000Y-101530000D02*
X137230000Y-101530000D01*
X139630000Y-99130000D02*
X139630000Y-101530000D01*
X137230000Y-99130000D02*
X139630000Y-99130000D01*
X133420000Y-101530000D02*
X133420000Y-99130000D01*
X135820000Y-101530000D02*
X133420000Y-101530000D01*
X135820000Y-99130000D02*
X135820000Y-101530000D01*
X133420000Y-99130000D02*
X135820000Y-99130000D01*
X129610000Y-101530000D02*
X129610000Y-99130000D01*
X132010000Y-101530000D02*
X129610000Y-101530000D01*
X132010000Y-99130000D02*
X132010000Y-101530000D01*
X129610000Y-99130000D02*
X132010000Y-99130000D01*
X141040000Y-67240000D02*
X141040000Y-64840000D01*
X143440000Y-67240000D02*
X141040000Y-67240000D01*
X143440000Y-64840000D02*
X143440000Y-67240000D01*
X141040000Y-64840000D02*
X143440000Y-64840000D01*
X137230000Y-67240000D02*
X137230000Y-64840000D01*
X139630000Y-67240000D02*
X137230000Y-67240000D01*
X139630000Y-64840000D02*
X139630000Y-67240000D01*
X137230000Y-64840000D02*
X139630000Y-64840000D01*
X133420000Y-67240000D02*
X133420000Y-64840000D01*
X135820000Y-67240000D02*
X133420000Y-67240000D01*
X135820000Y-64840000D02*
X135820000Y-67240000D01*
X133420000Y-64840000D02*
X135820000Y-64840000D01*
X129610000Y-97720000D02*
X129610000Y-95320000D01*
X132010000Y-97720000D02*
X129610000Y-97720000D01*
X132010000Y-95320000D02*
X132010000Y-97720000D01*
X129610000Y-95320000D02*
X132010000Y-95320000D01*
X129610000Y-93910000D02*
X129610000Y-91510000D01*
X132010000Y-93910000D02*
X129610000Y-93910000D01*
X132010000Y-91510000D02*
X132010000Y-93910000D01*
X129610000Y-91510000D02*
X132010000Y-91510000D01*
X129610000Y-90100000D02*
X129610000Y-87700000D01*
X132010000Y-90100000D02*
X129610000Y-90100000D01*
X132010000Y-87700000D02*
X132010000Y-90100000D01*
X129610000Y-87700000D02*
X132010000Y-87700000D01*
X129610000Y-86290000D02*
X129610000Y-83890000D01*
X132010000Y-86290000D02*
X129610000Y-86290000D01*
X132010000Y-83890000D02*
X132010000Y-86290000D01*
X129610000Y-83890000D02*
X132010000Y-83890000D01*
X132010000Y-80080000D02*
X132010000Y-82480000D01*
X129610000Y-80080000D02*
X132010000Y-80080000D01*
X129610000Y-82480000D02*
X129610000Y-80080000D01*
X132010000Y-82480000D02*
X129610000Y-82480000D01*
X156280000Y-86290000D02*
X156280000Y-83890000D01*
X158680000Y-86290000D02*
X156280000Y-86290000D01*
X158680000Y-83890000D02*
X158680000Y-86290000D01*
X156280000Y-83890000D02*
X158680000Y-83890000D01*
X129610000Y-74860000D02*
X129610000Y-72460000D01*
X132010000Y-74860000D02*
X129610000Y-74860000D01*
X132010000Y-72460000D02*
X132010000Y-74860000D01*
X129610000Y-72460000D02*
X132010000Y-72460000D01*
X129610000Y-67240000D02*
X129610000Y-64840000D01*
X132010000Y-67240000D02*
X129610000Y-67240000D01*
X132010000Y-64840000D02*
X132010000Y-67240000D01*
X129610000Y-64840000D02*
X132010000Y-64840000D01*
X156280000Y-71050000D02*
X156280000Y-68650000D01*
X158680000Y-71050000D02*
X156280000Y-71050000D01*
X158680000Y-68650000D02*
X158680000Y-71050000D01*
X156280000Y-68650000D02*
X158680000Y-68650000D01*
X129610000Y-71050000D02*
X129610000Y-68650000D01*
X132010000Y-71050000D02*
X129610000Y-71050000D01*
X132010000Y-68650000D02*
X132010000Y-71050000D01*
X129610000Y-68650000D02*
X132010000Y-68650000D01*
D12*
X135556666Y-106132380D02*
X135556666Y-106846666D01*
X135509047Y-106989523D01*
X135413809Y-107084761D01*
X135270952Y-107132380D01*
X135175714Y-107132380D01*
X136556666Y-107132380D02*
X135985238Y-107132380D01*
X136270952Y-107132380D02*
X136270952Y-106132380D01*
X136175714Y-106275238D01*
X136080476Y-106370476D01*
X135985238Y-106418095D01*
X157051428Y-103227142D02*
X157003809Y-103274761D01*
X156860952Y-103322380D01*
X156765714Y-103322380D01*
X156622857Y-103274761D01*
X156527619Y-103179523D01*
X156480000Y-103084285D01*
X156432380Y-102893809D01*
X156432380Y-102750952D01*
X156480000Y-102560476D01*
X156527619Y-102465238D01*
X156622857Y-102370000D01*
X156765714Y-102322380D01*
X156860952Y-102322380D01*
X157003809Y-102370000D01*
X157051428Y-102417619D01*
X157480000Y-103322380D02*
X157480000Y-102322380D01*
X158527619Y-103322380D02*
X158194285Y-102846190D01*
X157956190Y-103322380D02*
X157956190Y-102322380D01*
X158337142Y-102322380D01*
X158432380Y-102370000D01*
X158480000Y-102417619D01*
X158527619Y-102512857D01*
X158527619Y-102655714D01*
X158480000Y-102750952D01*
X158432380Y-102798571D01*
X158337142Y-102846190D01*
X157956190Y-102846190D01*
D13*
X143530476Y-79111904D02*
X143530476Y-80439523D01*
X143608571Y-80595714D01*
X143686666Y-80673809D01*
X143842857Y-80751904D01*
X144155238Y-80751904D01*
X144311428Y-80673809D01*
X144389523Y-80595714D01*
X144467619Y-80439523D01*
X144467619Y-79111904D01*
X146107619Y-80751904D02*
X145170476Y-80751904D01*
X145639047Y-80751904D02*
X145639047Y-79111904D01*
X145482857Y-79346190D01*
X145326666Y-79502380D01*
X145170476Y-79580476D01*
X141773333Y-83291904D02*
X141773333Y-81651904D01*
X142398095Y-81651904D01*
X142554285Y-81730000D01*
X142632380Y-81808095D01*
X142710476Y-81964285D01*
X142710476Y-82198571D01*
X142632380Y-82354761D01*
X142554285Y-82432857D01*
X142398095Y-82510952D01*
X141773333Y-82510952D01*
X143335238Y-83213809D02*
X143569523Y-83291904D01*
X143960000Y-83291904D01*
X144116190Y-83213809D01*
X144194285Y-83135714D01*
X144272380Y-82979523D01*
X144272380Y-82823333D01*
X144194285Y-82667142D01*
X144116190Y-82589047D01*
X143960000Y-82510952D01*
X143647619Y-82432857D01*
X143491428Y-82354761D01*
X143413333Y-82276666D01*
X143335238Y-82120476D01*
X143335238Y-81964285D01*
X143413333Y-81808095D01*
X143491428Y-81730000D01*
X143647619Y-81651904D01*
X144038095Y-81651904D01*
X144272380Y-81730000D01*
X144897142Y-81808095D02*
X144975238Y-81730000D01*
X145131428Y-81651904D01*
X145521904Y-81651904D01*
X145678095Y-81730000D01*
X145756190Y-81808095D01*
X145834285Y-81964285D01*
X145834285Y-82120476D01*
X145756190Y-82354761D01*
X144819047Y-83291904D01*
X145834285Y-83291904D01*
X146537142Y-82667142D02*
X147786666Y-82667142D01*
X147161904Y-83291904D02*
X147161904Y-82042380D01*
X137310000Y-77598380D02*
X137310000Y-77836476D01*
X137071904Y-77741238D02*
X137310000Y-77836476D01*
X137548095Y-77741238D01*
X137167142Y-78026952D02*
X137310000Y-77836476D01*
X137452857Y-78026952D01*
D12*
X160186666Y-97758095D02*
X160186666Y-97281904D01*
X160472380Y-97853333D02*
X159472380Y-97520000D01*
X160472380Y-97186666D01*
X160377142Y-96281904D02*
X160424761Y-96329523D01*
X160472380Y-96472380D01*
X160472380Y-96567619D01*
X160424761Y-96710476D01*
X160329523Y-96805714D01*
X160234285Y-96853333D01*
X160043809Y-96900952D01*
X159900952Y-96900952D01*
X159710476Y-96853333D01*
X159615238Y-96805714D01*
X159520000Y-96710476D01*
X159472380Y-96567619D01*
X159472380Y-96472380D01*
X159520000Y-96329523D01*
X159567619Y-96281904D01*
X160472380Y-95853333D02*
X159472380Y-95853333D01*
X160472380Y-95281904D02*
X159900952Y-95710476D01*
X159472380Y-95281904D02*
X160043809Y-95853333D01*
X160377142Y-92876666D02*
X160424761Y-92924285D01*
X160472380Y-93067142D01*
X160472380Y-93162380D01*
X160424761Y-93305238D01*
X160329523Y-93400476D01*
X160234285Y-93448095D01*
X160043809Y-93495714D01*
X159900952Y-93495714D01*
X159710476Y-93448095D01*
X159615238Y-93400476D01*
X159520000Y-93305238D01*
X159472380Y-93162380D01*
X159472380Y-93067142D01*
X159520000Y-92924285D01*
X159567619Y-92876666D01*
X160424761Y-92495714D02*
X160472380Y-92352857D01*
X160472380Y-92114761D01*
X160424761Y-92019523D01*
X160377142Y-91971904D01*
X160281904Y-91924285D01*
X160186666Y-91924285D01*
X160091428Y-91971904D01*
X160043809Y-92019523D01*
X159996190Y-92114761D01*
X159948571Y-92305238D01*
X159900952Y-92400476D01*
X159853333Y-92448095D01*
X159758095Y-92495714D01*
X159662857Y-92495714D01*
X159567619Y-92448095D01*
X159520000Y-92400476D01*
X159472380Y-92305238D01*
X159472380Y-92067142D01*
X159520000Y-91924285D01*
X159472380Y-90376190D02*
X159472380Y-89757142D01*
X159853333Y-90090476D01*
X159853333Y-89947619D01*
X159900952Y-89852380D01*
X159948571Y-89804761D01*
X160043809Y-89757142D01*
X160281904Y-89757142D01*
X160377142Y-89804761D01*
X160424761Y-89852380D01*
X160472380Y-89947619D01*
X160472380Y-90233333D01*
X160424761Y-90328571D01*
X160377142Y-90376190D01*
X160377142Y-89328571D02*
X160424761Y-89280952D01*
X160472380Y-89328571D01*
X160424761Y-89376190D01*
X160377142Y-89328571D01*
X160472380Y-89328571D01*
X159472380Y-88947619D02*
X159472380Y-88328571D01*
X159853333Y-88661904D01*
X159853333Y-88519047D01*
X159900952Y-88423809D01*
X159948571Y-88376190D01*
X160043809Y-88328571D01*
X160281904Y-88328571D01*
X160377142Y-88376190D01*
X160424761Y-88423809D01*
X160472380Y-88519047D01*
X160472380Y-88804761D01*
X160424761Y-88900000D01*
X160377142Y-88947619D01*
X159472380Y-88042857D02*
X160472380Y-87709523D01*
X159472380Y-87376190D01*
X127770000Y-78231904D02*
X127722380Y-78327142D01*
X127722380Y-78470000D01*
X127770000Y-78612857D01*
X127865238Y-78708095D01*
X127960476Y-78755714D01*
X128150952Y-78803333D01*
X128293809Y-78803333D01*
X128484285Y-78755714D01*
X128579523Y-78708095D01*
X128674761Y-78612857D01*
X128722380Y-78470000D01*
X128722380Y-78374761D01*
X128674761Y-78231904D01*
X128627142Y-78184285D01*
X128293809Y-78184285D01*
X128293809Y-78374761D01*
X128722380Y-77755714D02*
X127722380Y-77755714D01*
X128722380Y-77184285D01*
X127722380Y-77184285D01*
X128722380Y-76708095D02*
X127722380Y-76708095D01*
X127722380Y-76470000D01*
X127770000Y-76327142D01*
X127865238Y-76231904D01*
X127960476Y-76184285D01*
X128150952Y-76136666D01*
X128293809Y-76136666D01*
X128484285Y-76184285D01*
X128579523Y-76231904D01*
X128674761Y-76327142D01*
X128722380Y-76470000D01*
X128722380Y-76708095D01*
X160472380Y-83137142D02*
X159472380Y-83137142D01*
X159472380Y-82899047D01*
X159520000Y-82756190D01*
X159615238Y-82660952D01*
X159710476Y-82613333D01*
X159900952Y-82565714D01*
X160043809Y-82565714D01*
X160234285Y-82613333D01*
X160329523Y-82660952D01*
X160424761Y-82756190D01*
X160472380Y-82899047D01*
X160472380Y-83137142D01*
X160472380Y-82137142D02*
X159472380Y-82137142D01*
X159472380Y-81899047D01*
X159520000Y-81756190D01*
X159615238Y-81660952D01*
X159710476Y-81613333D01*
X159900952Y-81565714D01*
X160043809Y-81565714D01*
X160234285Y-81613333D01*
X160329523Y-81660952D01*
X160424761Y-81756190D01*
X160472380Y-81899047D01*
X160472380Y-82137142D01*
X159472380Y-81232380D02*
X160472380Y-80994285D01*
X159758095Y-80803809D01*
X160472380Y-80613333D01*
X159472380Y-80375238D01*
X160472380Y-79994285D02*
X159472380Y-79994285D01*
X160472380Y-79422857D01*
X159472380Y-79422857D01*
X160472380Y-78755714D02*
X159472380Y-78755714D01*
X159472380Y-78517619D01*
X159520000Y-78374761D01*
X159615238Y-78279523D01*
X159710476Y-78231904D01*
X159900952Y-78184285D01*
X160043809Y-78184285D01*
X160234285Y-78231904D01*
X160329523Y-78279523D01*
X160424761Y-78374761D01*
X160472380Y-78517619D01*
X160472380Y-78755714D01*
X159472380Y-77755714D02*
X160281904Y-77755714D01*
X160377142Y-77708095D01*
X160424761Y-77660476D01*
X160472380Y-77565238D01*
X160472380Y-77374761D01*
X160424761Y-77279523D01*
X160377142Y-77231904D01*
X160281904Y-77184285D01*
X159472380Y-77184285D01*
X160472380Y-76708095D02*
X159472380Y-76708095D01*
X159472380Y-76327142D01*
X159520000Y-76231904D01*
X159567619Y-76184285D01*
X159662857Y-76136666D01*
X159805714Y-76136666D01*
X159900952Y-76184285D01*
X159948571Y-76231904D01*
X159996190Y-76327142D01*
X159996190Y-76708095D01*
X160472380Y-73826666D02*
X160472380Y-74302857D01*
X159472380Y-74302857D01*
X159472380Y-73588571D02*
X160472380Y-72921904D01*
X159472380Y-72921904D02*
X160472380Y-73588571D01*
X153336666Y-102322380D02*
X154003333Y-103322380D01*
X154003333Y-102322380D02*
X153336666Y-103322380D01*
X157360952Y-64494380D02*
X156884761Y-64494380D01*
X156884761Y-63494380D01*
X157884761Y-64018190D02*
X157884761Y-64494380D01*
X157551428Y-63494380D02*
X157884761Y-64018190D01*
X158218095Y-63494380D01*
X148836190Y-102322380D02*
X149407619Y-102322380D01*
X149121904Y-103322380D02*
X149121904Y-102322380D01*
X150312380Y-103322380D02*
X149979047Y-102846190D01*
X149740952Y-103322380D02*
X149740952Y-102322380D01*
X150121904Y-102322380D01*
X150217142Y-102370000D01*
X150264761Y-102417619D01*
X150312380Y-102512857D01*
X150312380Y-102655714D01*
X150264761Y-102750952D01*
X150217142Y-102798571D01*
X150121904Y-102846190D01*
X149740952Y-102846190D01*
X150740952Y-103322380D02*
X150740952Y-102322380D01*
X153503333Y-64494380D02*
X153027142Y-64494380D01*
X153027142Y-63494380D01*
X153741428Y-63494380D02*
X154360476Y-63494380D01*
X154027142Y-63875333D01*
X154170000Y-63875333D01*
X154265238Y-63922952D01*
X154312857Y-63970571D01*
X154360476Y-64065809D01*
X154360476Y-64303904D01*
X154312857Y-64399142D01*
X154265238Y-64446761D01*
X154170000Y-64494380D01*
X153884285Y-64494380D01*
X153789047Y-64446761D01*
X153741428Y-64399142D01*
X145620476Y-102984761D02*
X145763333Y-103032380D01*
X146001428Y-103032380D01*
X146096666Y-102984761D01*
X146144285Y-102937142D01*
X146191904Y-102841904D01*
X146191904Y-102746666D01*
X146144285Y-102651428D01*
X146096666Y-102603809D01*
X146001428Y-102556190D01*
X145810952Y-102508571D01*
X145715714Y-102460952D01*
X145668095Y-102413333D01*
X145620476Y-102318095D01*
X145620476Y-102222857D01*
X145668095Y-102127619D01*
X145715714Y-102080000D01*
X145810952Y-102032380D01*
X146049047Y-102032380D01*
X146191904Y-102080000D01*
X147287142Y-103127619D02*
X147191904Y-103080000D01*
X147096666Y-102984761D01*
X146953809Y-102841904D01*
X146858571Y-102794285D01*
X146763333Y-102794285D01*
X146810952Y-103032380D02*
X146715714Y-102984761D01*
X146620476Y-102889523D01*
X146572857Y-102699047D01*
X146572857Y-102365714D01*
X146620476Y-102175238D01*
X146715714Y-102080000D01*
X146810952Y-102032380D01*
X147001428Y-102032380D01*
X147096666Y-102080000D01*
X147191904Y-102175238D01*
X147239523Y-102365714D01*
X147239523Y-102699047D01*
X147191904Y-102889523D01*
X147096666Y-102984761D01*
X147001428Y-103032380D01*
X146810952Y-103032380D01*
X149264761Y-64399142D02*
X149217142Y-64446761D01*
X149074285Y-64494380D01*
X148979047Y-64494380D01*
X148836190Y-64446761D01*
X148740952Y-64351523D01*
X148693333Y-64256285D01*
X148645714Y-64065809D01*
X148645714Y-63922952D01*
X148693333Y-63732476D01*
X148740952Y-63637238D01*
X148836190Y-63542000D01*
X148979047Y-63494380D01*
X149074285Y-63494380D01*
X149217142Y-63542000D01*
X149264761Y-63589619D01*
X150169523Y-64494380D02*
X149693333Y-64494380D01*
X149693333Y-63494380D01*
X150502857Y-64494380D02*
X150502857Y-63494380D01*
X151074285Y-64494380D02*
X150645714Y-63922952D01*
X151074285Y-63494380D02*
X150502857Y-64065809D01*
X145883333Y-64494380D02*
X145550000Y-64018190D01*
X145311904Y-64494380D02*
X145311904Y-63494380D01*
X145692857Y-63494380D01*
X145788095Y-63542000D01*
X145835714Y-63589619D01*
X145883333Y-63684857D01*
X145883333Y-63827714D01*
X145835714Y-63922952D01*
X145788095Y-63970571D01*
X145692857Y-64018190D01*
X145311904Y-64018190D01*
X146216666Y-63494380D02*
X146835714Y-63494380D01*
X146502380Y-63875333D01*
X146645238Y-63875333D01*
X146740476Y-63922952D01*
X146788095Y-63970571D01*
X146835714Y-64065809D01*
X146835714Y-64303904D01*
X146788095Y-64399142D01*
X146740476Y-64446761D01*
X146645238Y-64494380D01*
X146359523Y-64494380D01*
X146264285Y-64446761D01*
X146216666Y-64399142D01*
X141573333Y-103274761D02*
X141716190Y-103322380D01*
X141954285Y-103322380D01*
X142049523Y-103274761D01*
X142097142Y-103227142D01*
X142144761Y-103131904D01*
X142144761Y-103036666D01*
X142097142Y-102941428D01*
X142049523Y-102893809D01*
X141954285Y-102846190D01*
X141763809Y-102798571D01*
X141668571Y-102750952D01*
X141620952Y-102703333D01*
X141573333Y-102608095D01*
X141573333Y-102512857D01*
X141620952Y-102417619D01*
X141668571Y-102370000D01*
X141763809Y-102322380D01*
X142001904Y-102322380D01*
X142144761Y-102370000D01*
X142430476Y-102322380D02*
X143001904Y-102322380D01*
X142716190Y-103322380D02*
X142716190Y-102322380D01*
X137539523Y-103274761D02*
X137682380Y-103322380D01*
X137920476Y-103322380D01*
X138015714Y-103274761D01*
X138063333Y-103227142D01*
X138110952Y-103131904D01*
X138110952Y-103036666D01*
X138063333Y-102941428D01*
X138015714Y-102893809D01*
X137920476Y-102846190D01*
X137730000Y-102798571D01*
X137634761Y-102750952D01*
X137587142Y-102703333D01*
X137539523Y-102608095D01*
X137539523Y-102512857D01*
X137587142Y-102417619D01*
X137634761Y-102370000D01*
X137730000Y-102322380D01*
X137968095Y-102322380D01*
X138110952Y-102370000D01*
X139015714Y-103322380D02*
X138539523Y-103322380D01*
X138539523Y-102322380D01*
X134453333Y-103322380D02*
X134120000Y-102846190D01*
X133881904Y-103322380D02*
X133881904Y-102322380D01*
X134262857Y-102322380D01*
X134358095Y-102370000D01*
X134405714Y-102417619D01*
X134453333Y-102512857D01*
X134453333Y-102655714D01*
X134405714Y-102750952D01*
X134358095Y-102798571D01*
X134262857Y-102846190D01*
X133881904Y-102846190D01*
X134834285Y-102417619D02*
X134881904Y-102370000D01*
X134977142Y-102322380D01*
X135215238Y-102322380D01*
X135310476Y-102370000D01*
X135358095Y-102417619D01*
X135405714Y-102512857D01*
X135405714Y-102608095D01*
X135358095Y-102750952D01*
X134786666Y-103322380D01*
X135405714Y-103322380D01*
X130643333Y-103322380D02*
X130310000Y-102846190D01*
X130071904Y-103322380D02*
X130071904Y-102322380D01*
X130452857Y-102322380D01*
X130548095Y-102370000D01*
X130595714Y-102417619D01*
X130643333Y-102512857D01*
X130643333Y-102655714D01*
X130595714Y-102750952D01*
X130548095Y-102798571D01*
X130452857Y-102846190D01*
X130071904Y-102846190D01*
X131595714Y-103322380D02*
X131024285Y-103322380D01*
X131310000Y-103322380D02*
X131310000Y-102322380D01*
X131214761Y-102465238D01*
X131119523Y-102560476D01*
X131024285Y-102608095D01*
X140668571Y-64494380D02*
X140668571Y-63494380D01*
X141001904Y-64208666D01*
X141335238Y-63494380D01*
X141335238Y-64494380D01*
X142001904Y-63494380D02*
X142192380Y-63494380D01*
X142287619Y-63542000D01*
X142382857Y-63637238D01*
X142430476Y-63827714D01*
X142430476Y-64161047D01*
X142382857Y-64351523D01*
X142287619Y-64446761D01*
X142192380Y-64494380D01*
X142001904Y-64494380D01*
X141906666Y-64446761D01*
X141811428Y-64351523D01*
X141763809Y-64161047D01*
X141763809Y-63827714D01*
X141811428Y-63637238D01*
X141906666Y-63542000D01*
X142001904Y-63494380D01*
X142811428Y-64446761D02*
X142954285Y-64494380D01*
X143192380Y-64494380D01*
X143287619Y-64446761D01*
X143335238Y-64399142D01*
X143382857Y-64303904D01*
X143382857Y-64208666D01*
X143335238Y-64113428D01*
X143287619Y-64065809D01*
X143192380Y-64018190D01*
X143001904Y-63970571D01*
X142906666Y-63922952D01*
X142859047Y-63875333D01*
X142811428Y-63780095D01*
X142811428Y-63684857D01*
X142859047Y-63589619D01*
X142906666Y-63542000D01*
X143001904Y-63494380D01*
X143240000Y-63494380D01*
X143382857Y-63542000D01*
X143811428Y-64494380D02*
X143811428Y-63494380D01*
X136858571Y-64494380D02*
X136858571Y-63494380D01*
X137191904Y-64208666D01*
X137525238Y-63494380D01*
X137525238Y-64494380D01*
X138001428Y-64494380D02*
X138001428Y-63494380D01*
X138430000Y-64446761D02*
X138572857Y-64494380D01*
X138810952Y-64494380D01*
X138906190Y-64446761D01*
X138953809Y-64399142D01*
X139001428Y-64303904D01*
X139001428Y-64208666D01*
X138953809Y-64113428D01*
X138906190Y-64065809D01*
X138810952Y-64018190D01*
X138620476Y-63970571D01*
X138525238Y-63922952D01*
X138477619Y-63875333D01*
X138430000Y-63780095D01*
X138430000Y-63684857D01*
X138477619Y-63589619D01*
X138525238Y-63542000D01*
X138620476Y-63494380D01*
X138858571Y-63494380D01*
X139001428Y-63542000D01*
X139620476Y-63494380D02*
X139810952Y-63494380D01*
X139906190Y-63542000D01*
X140001428Y-63637238D01*
X140049047Y-63827714D01*
X140049047Y-64161047D01*
X140001428Y-64351523D01*
X139906190Y-64446761D01*
X139810952Y-64494380D01*
X139620476Y-64494380D01*
X139525238Y-64446761D01*
X139430000Y-64351523D01*
X139382380Y-64161047D01*
X139382380Y-63827714D01*
X139430000Y-63637238D01*
X139525238Y-63542000D01*
X139620476Y-63494380D01*
X134453333Y-64494380D02*
X134120000Y-64018190D01*
X133881904Y-64494380D02*
X133881904Y-63494380D01*
X134262857Y-63494380D01*
X134358095Y-63542000D01*
X134405714Y-63589619D01*
X134453333Y-63684857D01*
X134453333Y-63827714D01*
X134405714Y-63922952D01*
X134358095Y-63970571D01*
X134262857Y-64018190D01*
X133881904Y-64018190D01*
X134786666Y-63494380D02*
X135453333Y-64494380D01*
X135453333Y-63494380D02*
X134786666Y-64494380D01*
X128722380Y-96686666D02*
X128722380Y-97162857D01*
X127722380Y-97162857D01*
X127817619Y-96400952D02*
X127770000Y-96353333D01*
X127722380Y-96258095D01*
X127722380Y-96020000D01*
X127770000Y-95924761D01*
X127817619Y-95877142D01*
X127912857Y-95829523D01*
X128008095Y-95829523D01*
X128150952Y-95877142D01*
X128722380Y-96448571D01*
X128722380Y-95829523D01*
X128722380Y-92876666D02*
X128722380Y-93352857D01*
X127722380Y-93352857D01*
X128722380Y-92019523D02*
X128722380Y-92590952D01*
X128722380Y-92305238D02*
X127722380Y-92305238D01*
X127865238Y-92400476D01*
X127960476Y-92495714D01*
X128008095Y-92590952D01*
X128722380Y-90566666D02*
X127722380Y-90566666D01*
X127722380Y-90328571D01*
X127770000Y-90185714D01*
X127865238Y-90090476D01*
X127960476Y-90042857D01*
X128150952Y-89995238D01*
X128293809Y-89995238D01*
X128484285Y-90042857D01*
X128579523Y-90090476D01*
X128674761Y-90185714D01*
X128722380Y-90328571D01*
X128722380Y-90566666D01*
X128722380Y-88995238D02*
X128246190Y-89328571D01*
X128722380Y-89566666D02*
X127722380Y-89566666D01*
X127722380Y-89185714D01*
X127770000Y-89090476D01*
X127817619Y-89042857D01*
X127912857Y-88995238D01*
X128055714Y-88995238D01*
X128150952Y-89042857D01*
X128198571Y-89090476D01*
X128246190Y-89185714D01*
X128246190Y-89566666D01*
X128722380Y-88566666D02*
X127722380Y-88566666D01*
X128198571Y-88566666D02*
X128198571Y-87995238D01*
X128722380Y-87995238D02*
X127722380Y-87995238D01*
X127722380Y-87661904D02*
X127722380Y-87090476D01*
X128722380Y-87376190D02*
X127722380Y-87376190D01*
X128722380Y-86566190D02*
X127722380Y-86566190D01*
X127722380Y-86328095D01*
X127770000Y-86185238D01*
X127865238Y-86090000D01*
X127960476Y-86042380D01*
X128150952Y-85994761D01*
X128293809Y-85994761D01*
X128484285Y-86042380D01*
X128579523Y-86090000D01*
X128674761Y-86185238D01*
X128722380Y-86328095D01*
X128722380Y-86566190D01*
X128722380Y-85090000D02*
X128722380Y-85566190D01*
X127722380Y-85566190D01*
X128198571Y-84423333D02*
X128198571Y-84756666D01*
X128722380Y-84756666D02*
X127722380Y-84756666D01*
X127722380Y-84280476D01*
X127722380Y-84042380D02*
X127722380Y-83470952D01*
X128722380Y-83756666D02*
X127722380Y-83756666D01*
X127722380Y-82756190D02*
X127722380Y-82137142D01*
X128103333Y-82470476D01*
X128103333Y-82327619D01*
X128150952Y-82232380D01*
X128198571Y-82184761D01*
X128293809Y-82137142D01*
X128531904Y-82137142D01*
X128627142Y-82184761D01*
X128674761Y-82232380D01*
X128722380Y-82327619D01*
X128722380Y-82613333D01*
X128674761Y-82708571D01*
X128627142Y-82756190D01*
X128627142Y-81708571D02*
X128674761Y-81660952D01*
X128722380Y-81708571D01*
X128674761Y-81756190D01*
X128627142Y-81708571D01*
X128722380Y-81708571D01*
X127722380Y-81327619D02*
X127722380Y-80708571D01*
X128103333Y-81041904D01*
X128103333Y-80899047D01*
X128150952Y-80803809D01*
X128198571Y-80756190D01*
X128293809Y-80708571D01*
X128531904Y-80708571D01*
X128627142Y-80756190D01*
X128674761Y-80803809D01*
X128722380Y-80899047D01*
X128722380Y-81184761D01*
X128674761Y-81280000D01*
X128627142Y-81327619D01*
X127722380Y-80422857D02*
X128722380Y-80089523D01*
X127722380Y-79756190D01*
X159520000Y-85851904D02*
X159472380Y-85947142D01*
X159472380Y-86090000D01*
X159520000Y-86232857D01*
X159615238Y-86328095D01*
X159710476Y-86375714D01*
X159900952Y-86423333D01*
X160043809Y-86423333D01*
X160234285Y-86375714D01*
X160329523Y-86328095D01*
X160424761Y-86232857D01*
X160472380Y-86090000D01*
X160472380Y-85994761D01*
X160424761Y-85851904D01*
X160377142Y-85804285D01*
X160043809Y-85804285D01*
X160043809Y-85994761D01*
X160472380Y-85375714D02*
X159472380Y-85375714D01*
X160472380Y-84804285D01*
X159472380Y-84804285D01*
X160472380Y-84328095D02*
X159472380Y-84328095D01*
X159472380Y-84090000D01*
X159520000Y-83947142D01*
X159615238Y-83851904D01*
X159710476Y-83804285D01*
X159900952Y-83756666D01*
X160043809Y-83756666D01*
X160234285Y-83804285D01*
X160329523Y-83851904D01*
X160424761Y-83947142D01*
X160472380Y-84090000D01*
X160472380Y-84328095D01*
X128722380Y-73779047D02*
X128246190Y-74112380D01*
X128722380Y-74350476D02*
X127722380Y-74350476D01*
X127722380Y-73969523D01*
X127770000Y-73874285D01*
X127817619Y-73826666D01*
X127912857Y-73779047D01*
X128055714Y-73779047D01*
X128150952Y-73826666D01*
X128198571Y-73874285D01*
X128246190Y-73969523D01*
X128246190Y-74350476D01*
X128246190Y-73160000D02*
X128722380Y-73160000D01*
X127722380Y-73493333D02*
X128246190Y-73160000D01*
X127722380Y-72826666D01*
X129571904Y-63922952D02*
X129476666Y-63875333D01*
X129429047Y-63827714D01*
X129381428Y-63732476D01*
X129381428Y-63684857D01*
X129429047Y-63589619D01*
X129476666Y-63542000D01*
X129571904Y-63494380D01*
X129762380Y-63494380D01*
X129857619Y-63542000D01*
X129905238Y-63589619D01*
X129952857Y-63684857D01*
X129952857Y-63732476D01*
X129905238Y-63827714D01*
X129857619Y-63875333D01*
X129762380Y-63922952D01*
X129571904Y-63922952D01*
X129476666Y-63970571D01*
X129429047Y-64018190D01*
X129381428Y-64113428D01*
X129381428Y-64303904D01*
X129429047Y-64399142D01*
X129476666Y-64446761D01*
X129571904Y-64494380D01*
X129762380Y-64494380D01*
X129857619Y-64446761D01*
X129905238Y-64399142D01*
X129952857Y-64303904D01*
X129952857Y-64113428D01*
X129905238Y-64018190D01*
X129857619Y-63970571D01*
X129762380Y-63922952D01*
X130381428Y-64399142D02*
X130429047Y-64446761D01*
X130381428Y-64494380D01*
X130333809Y-64446761D01*
X130381428Y-64399142D01*
X130381428Y-64494380D01*
X131333809Y-63494380D02*
X130857619Y-63494380D01*
X130810000Y-63970571D01*
X130857619Y-63922952D01*
X130952857Y-63875333D01*
X131190952Y-63875333D01*
X131286190Y-63922952D01*
X131333809Y-63970571D01*
X131381428Y-64065809D01*
X131381428Y-64303904D01*
X131333809Y-64399142D01*
X131286190Y-64446761D01*
X131190952Y-64494380D01*
X130952857Y-64494380D01*
X130857619Y-64446761D01*
X130810000Y-64399142D01*
X131667142Y-63494380D02*
X132000476Y-64494380D01*
X132333809Y-63494380D01*
X160472380Y-71683333D02*
X159472380Y-71683333D01*
X160186666Y-71350000D01*
X159472380Y-71016666D01*
X160472380Y-71016666D01*
X159472380Y-70683333D02*
X159472380Y-70111904D01*
X160472380Y-70397619D02*
X159472380Y-70397619D01*
X160472380Y-69207142D02*
X159996190Y-69540476D01*
X160472380Y-69778571D02*
X159472380Y-69778571D01*
X159472380Y-69397619D01*
X159520000Y-69302380D01*
X159567619Y-69254761D01*
X159662857Y-69207142D01*
X159805714Y-69207142D01*
X159900952Y-69254761D01*
X159948571Y-69302380D01*
X159996190Y-69397619D01*
X159996190Y-69778571D01*
X160091428Y-68778571D02*
X160091428Y-68016666D01*
X160472380Y-68397619D02*
X159710476Y-68397619D01*
X128722380Y-71683333D02*
X127722380Y-71683333D01*
X128436666Y-71350000D01*
X127722380Y-71016666D01*
X128722380Y-71016666D01*
X127722380Y-70683333D02*
X127722380Y-70111904D01*
X128722380Y-70397619D02*
X127722380Y-70397619D01*
X128722380Y-69207142D02*
X128246190Y-69540476D01*
X128722380Y-69778571D02*
X127722380Y-69778571D01*
X127722380Y-69397619D01*
X127770000Y-69302380D01*
X127817619Y-69254761D01*
X127912857Y-69207142D01*
X128055714Y-69207142D01*
X128150952Y-69254761D01*
X128198571Y-69302380D01*
X128246190Y-69397619D01*
X128246190Y-69778571D01*
X128341428Y-68778571D02*
X128341428Y-68016666D01*
M02*
