G04 #@! TF.GenerationSoftware,KiCad,Pcbnew,(5.1.2)-2*
G04 #@! TF.CreationDate,2019-08-15T12:03:38-06:00*
G04 #@! TF.ProjectId,ps2plus,70733270-6c75-4732-9e6b-696361645f70,rev?*
G04 #@! TF.SameCoordinates,Original*
G04 #@! TF.FileFunction,Paste,Top*
G04 #@! TF.FilePolarity,Positive*
%FSLAX46Y46*%
G04 Gerber Fmt 4.6, Leading zero omitted, Abs format (unit mm)*
G04 Created by KiCad (PCBNEW (5.1.2)-2) date 2019-08-15 12:03:38*
%MOMM*%
%LPD*%
G04 APERTURE LIST*
%ADD10C,0.100000*%
%ADD11C,1.150000*%
%ADD12R,0.800000X0.900000*%
%ADD13R,1.473200X0.482600*%
%ADD14R,0.482600X1.473200*%
G04 APERTURE END LIST*
D10*
G36*
X128744505Y-61166204D02*
G01*
X128768773Y-61169804D01*
X128792572Y-61175765D01*
X128815671Y-61184030D01*
X128837850Y-61194520D01*
X128858893Y-61207132D01*
X128878599Y-61221747D01*
X128896777Y-61238223D01*
X128913253Y-61256401D01*
X128927868Y-61276107D01*
X128940480Y-61297150D01*
X128950970Y-61319329D01*
X128959235Y-61342428D01*
X128965196Y-61366227D01*
X128968796Y-61390495D01*
X128970000Y-61414999D01*
X128970000Y-62065001D01*
X128968796Y-62089505D01*
X128965196Y-62113773D01*
X128959235Y-62137572D01*
X128950970Y-62160671D01*
X128940480Y-62182850D01*
X128927868Y-62203893D01*
X128913253Y-62223599D01*
X128896777Y-62241777D01*
X128878599Y-62258253D01*
X128858893Y-62272868D01*
X128837850Y-62285480D01*
X128815671Y-62295970D01*
X128792572Y-62304235D01*
X128768773Y-62310196D01*
X128744505Y-62313796D01*
X128720001Y-62315000D01*
X127819999Y-62315000D01*
X127795495Y-62313796D01*
X127771227Y-62310196D01*
X127747428Y-62304235D01*
X127724329Y-62295970D01*
X127702150Y-62285480D01*
X127681107Y-62272868D01*
X127661401Y-62258253D01*
X127643223Y-62241777D01*
X127626747Y-62223599D01*
X127612132Y-62203893D01*
X127599520Y-62182850D01*
X127589030Y-62160671D01*
X127580765Y-62137572D01*
X127574804Y-62113773D01*
X127571204Y-62089505D01*
X127570000Y-62065001D01*
X127570000Y-61414999D01*
X127571204Y-61390495D01*
X127574804Y-61366227D01*
X127580765Y-61342428D01*
X127589030Y-61319329D01*
X127599520Y-61297150D01*
X127612132Y-61276107D01*
X127626747Y-61256401D01*
X127643223Y-61238223D01*
X127661401Y-61221747D01*
X127681107Y-61207132D01*
X127702150Y-61194520D01*
X127724329Y-61184030D01*
X127747428Y-61175765D01*
X127771227Y-61169804D01*
X127795495Y-61166204D01*
X127819999Y-61165000D01*
X128720001Y-61165000D01*
X128744505Y-61166204D01*
X128744505Y-61166204D01*
G37*
D11*
X128270000Y-61740000D03*
D10*
G36*
X128744505Y-59116204D02*
G01*
X128768773Y-59119804D01*
X128792572Y-59125765D01*
X128815671Y-59134030D01*
X128837850Y-59144520D01*
X128858893Y-59157132D01*
X128878599Y-59171747D01*
X128896777Y-59188223D01*
X128913253Y-59206401D01*
X128927868Y-59226107D01*
X128940480Y-59247150D01*
X128950970Y-59269329D01*
X128959235Y-59292428D01*
X128965196Y-59316227D01*
X128968796Y-59340495D01*
X128970000Y-59364999D01*
X128970000Y-60015001D01*
X128968796Y-60039505D01*
X128965196Y-60063773D01*
X128959235Y-60087572D01*
X128950970Y-60110671D01*
X128940480Y-60132850D01*
X128927868Y-60153893D01*
X128913253Y-60173599D01*
X128896777Y-60191777D01*
X128878599Y-60208253D01*
X128858893Y-60222868D01*
X128837850Y-60235480D01*
X128815671Y-60245970D01*
X128792572Y-60254235D01*
X128768773Y-60260196D01*
X128744505Y-60263796D01*
X128720001Y-60265000D01*
X127819999Y-60265000D01*
X127795495Y-60263796D01*
X127771227Y-60260196D01*
X127747428Y-60254235D01*
X127724329Y-60245970D01*
X127702150Y-60235480D01*
X127681107Y-60222868D01*
X127661401Y-60208253D01*
X127643223Y-60191777D01*
X127626747Y-60173599D01*
X127612132Y-60153893D01*
X127599520Y-60132850D01*
X127589030Y-60110671D01*
X127580765Y-60087572D01*
X127574804Y-60063773D01*
X127571204Y-60039505D01*
X127570000Y-60015001D01*
X127570000Y-59364999D01*
X127571204Y-59340495D01*
X127574804Y-59316227D01*
X127580765Y-59292428D01*
X127589030Y-59269329D01*
X127599520Y-59247150D01*
X127612132Y-59226107D01*
X127626747Y-59206401D01*
X127643223Y-59188223D01*
X127661401Y-59171747D01*
X127681107Y-59157132D01*
X127702150Y-59144520D01*
X127724329Y-59134030D01*
X127747428Y-59125765D01*
X127771227Y-59119804D01*
X127795495Y-59116204D01*
X127819999Y-59115000D01*
X128720001Y-59115000D01*
X128744505Y-59116204D01*
X128744505Y-59116204D01*
G37*
D11*
X128270000Y-59690000D03*
D10*
G36*
X126204505Y-59116204D02*
G01*
X126228773Y-59119804D01*
X126252572Y-59125765D01*
X126275671Y-59134030D01*
X126297850Y-59144520D01*
X126318893Y-59157132D01*
X126338599Y-59171747D01*
X126356777Y-59188223D01*
X126373253Y-59206401D01*
X126387868Y-59226107D01*
X126400480Y-59247150D01*
X126410970Y-59269329D01*
X126419235Y-59292428D01*
X126425196Y-59316227D01*
X126428796Y-59340495D01*
X126430000Y-59364999D01*
X126430000Y-60015001D01*
X126428796Y-60039505D01*
X126425196Y-60063773D01*
X126419235Y-60087572D01*
X126410970Y-60110671D01*
X126400480Y-60132850D01*
X126387868Y-60153893D01*
X126373253Y-60173599D01*
X126356777Y-60191777D01*
X126338599Y-60208253D01*
X126318893Y-60222868D01*
X126297850Y-60235480D01*
X126275671Y-60245970D01*
X126252572Y-60254235D01*
X126228773Y-60260196D01*
X126204505Y-60263796D01*
X126180001Y-60265000D01*
X125279999Y-60265000D01*
X125255495Y-60263796D01*
X125231227Y-60260196D01*
X125207428Y-60254235D01*
X125184329Y-60245970D01*
X125162150Y-60235480D01*
X125141107Y-60222868D01*
X125121401Y-60208253D01*
X125103223Y-60191777D01*
X125086747Y-60173599D01*
X125072132Y-60153893D01*
X125059520Y-60132850D01*
X125049030Y-60110671D01*
X125040765Y-60087572D01*
X125034804Y-60063773D01*
X125031204Y-60039505D01*
X125030000Y-60015001D01*
X125030000Y-59364999D01*
X125031204Y-59340495D01*
X125034804Y-59316227D01*
X125040765Y-59292428D01*
X125049030Y-59269329D01*
X125059520Y-59247150D01*
X125072132Y-59226107D01*
X125086747Y-59206401D01*
X125103223Y-59188223D01*
X125121401Y-59171747D01*
X125141107Y-59157132D01*
X125162150Y-59144520D01*
X125184329Y-59134030D01*
X125207428Y-59125765D01*
X125231227Y-59119804D01*
X125255495Y-59116204D01*
X125279999Y-59115000D01*
X126180001Y-59115000D01*
X126204505Y-59116204D01*
X126204505Y-59116204D01*
G37*
D11*
X125730000Y-59690000D03*
D10*
G36*
X126204505Y-61166204D02*
G01*
X126228773Y-61169804D01*
X126252572Y-61175765D01*
X126275671Y-61184030D01*
X126297850Y-61194520D01*
X126318893Y-61207132D01*
X126338599Y-61221747D01*
X126356777Y-61238223D01*
X126373253Y-61256401D01*
X126387868Y-61276107D01*
X126400480Y-61297150D01*
X126410970Y-61319329D01*
X126419235Y-61342428D01*
X126425196Y-61366227D01*
X126428796Y-61390495D01*
X126430000Y-61414999D01*
X126430000Y-62065001D01*
X126428796Y-62089505D01*
X126425196Y-62113773D01*
X126419235Y-62137572D01*
X126410970Y-62160671D01*
X126400480Y-62182850D01*
X126387868Y-62203893D01*
X126373253Y-62223599D01*
X126356777Y-62241777D01*
X126338599Y-62258253D01*
X126318893Y-62272868D01*
X126297850Y-62285480D01*
X126275671Y-62295970D01*
X126252572Y-62304235D01*
X126228773Y-62310196D01*
X126204505Y-62313796D01*
X126180001Y-62315000D01*
X125279999Y-62315000D01*
X125255495Y-62313796D01*
X125231227Y-62310196D01*
X125207428Y-62304235D01*
X125184329Y-62295970D01*
X125162150Y-62285480D01*
X125141107Y-62272868D01*
X125121401Y-62258253D01*
X125103223Y-62241777D01*
X125086747Y-62223599D01*
X125072132Y-62203893D01*
X125059520Y-62182850D01*
X125049030Y-62160671D01*
X125040765Y-62137572D01*
X125034804Y-62113773D01*
X125031204Y-62089505D01*
X125030000Y-62065001D01*
X125030000Y-61414999D01*
X125031204Y-61390495D01*
X125034804Y-61366227D01*
X125040765Y-61342428D01*
X125049030Y-61319329D01*
X125059520Y-61297150D01*
X125072132Y-61276107D01*
X125086747Y-61256401D01*
X125103223Y-61238223D01*
X125121401Y-61221747D01*
X125141107Y-61207132D01*
X125162150Y-61194520D01*
X125184329Y-61184030D01*
X125207428Y-61175765D01*
X125231227Y-61169804D01*
X125255495Y-61166204D01*
X125279999Y-61165000D01*
X126180001Y-61165000D01*
X126204505Y-61166204D01*
X126204505Y-61166204D01*
G37*
D11*
X125730000Y-61740000D03*
D12*
X128910000Y-67310000D03*
X130810000Y-67310000D03*
X129860000Y-65310000D03*
D10*
G36*
X132819505Y-62166204D02*
G01*
X132843773Y-62169804D01*
X132867572Y-62175765D01*
X132890671Y-62184030D01*
X132912850Y-62194520D01*
X132933893Y-62207132D01*
X132953599Y-62221747D01*
X132971777Y-62238223D01*
X132988253Y-62256401D01*
X133002868Y-62276107D01*
X133015480Y-62297150D01*
X133025970Y-62319329D01*
X133034235Y-62342428D01*
X133040196Y-62366227D01*
X133043796Y-62390495D01*
X133045000Y-62414999D01*
X133045000Y-63315001D01*
X133043796Y-63339505D01*
X133040196Y-63363773D01*
X133034235Y-63387572D01*
X133025970Y-63410671D01*
X133015480Y-63432850D01*
X133002868Y-63453893D01*
X132988253Y-63473599D01*
X132971777Y-63491777D01*
X132953599Y-63508253D01*
X132933893Y-63522868D01*
X132912850Y-63535480D01*
X132890671Y-63545970D01*
X132867572Y-63554235D01*
X132843773Y-63560196D01*
X132819505Y-63563796D01*
X132795001Y-63565000D01*
X132144999Y-63565000D01*
X132120495Y-63563796D01*
X132096227Y-63560196D01*
X132072428Y-63554235D01*
X132049329Y-63545970D01*
X132027150Y-63535480D01*
X132006107Y-63522868D01*
X131986401Y-63508253D01*
X131968223Y-63491777D01*
X131951747Y-63473599D01*
X131937132Y-63453893D01*
X131924520Y-63432850D01*
X131914030Y-63410671D01*
X131905765Y-63387572D01*
X131899804Y-63363773D01*
X131896204Y-63339505D01*
X131895000Y-63315001D01*
X131895000Y-62414999D01*
X131896204Y-62390495D01*
X131899804Y-62366227D01*
X131905765Y-62342428D01*
X131914030Y-62319329D01*
X131924520Y-62297150D01*
X131937132Y-62276107D01*
X131951747Y-62256401D01*
X131968223Y-62238223D01*
X131986401Y-62221747D01*
X132006107Y-62207132D01*
X132027150Y-62194520D01*
X132049329Y-62184030D01*
X132072428Y-62175765D01*
X132096227Y-62169804D01*
X132120495Y-62166204D01*
X132144999Y-62165000D01*
X132795001Y-62165000D01*
X132819505Y-62166204D01*
X132819505Y-62166204D01*
G37*
D11*
X132470000Y-62865000D03*
D10*
G36*
X130769505Y-62166204D02*
G01*
X130793773Y-62169804D01*
X130817572Y-62175765D01*
X130840671Y-62184030D01*
X130862850Y-62194520D01*
X130883893Y-62207132D01*
X130903599Y-62221747D01*
X130921777Y-62238223D01*
X130938253Y-62256401D01*
X130952868Y-62276107D01*
X130965480Y-62297150D01*
X130975970Y-62319329D01*
X130984235Y-62342428D01*
X130990196Y-62366227D01*
X130993796Y-62390495D01*
X130995000Y-62414999D01*
X130995000Y-63315001D01*
X130993796Y-63339505D01*
X130990196Y-63363773D01*
X130984235Y-63387572D01*
X130975970Y-63410671D01*
X130965480Y-63432850D01*
X130952868Y-63453893D01*
X130938253Y-63473599D01*
X130921777Y-63491777D01*
X130903599Y-63508253D01*
X130883893Y-63522868D01*
X130862850Y-63535480D01*
X130840671Y-63545970D01*
X130817572Y-63554235D01*
X130793773Y-63560196D01*
X130769505Y-63563796D01*
X130745001Y-63565000D01*
X130094999Y-63565000D01*
X130070495Y-63563796D01*
X130046227Y-63560196D01*
X130022428Y-63554235D01*
X129999329Y-63545970D01*
X129977150Y-63535480D01*
X129956107Y-63522868D01*
X129936401Y-63508253D01*
X129918223Y-63491777D01*
X129901747Y-63473599D01*
X129887132Y-63453893D01*
X129874520Y-63432850D01*
X129864030Y-63410671D01*
X129855765Y-63387572D01*
X129849804Y-63363773D01*
X129846204Y-63339505D01*
X129845000Y-63315001D01*
X129845000Y-62414999D01*
X129846204Y-62390495D01*
X129849804Y-62366227D01*
X129855765Y-62342428D01*
X129864030Y-62319329D01*
X129874520Y-62297150D01*
X129887132Y-62276107D01*
X129901747Y-62256401D01*
X129918223Y-62238223D01*
X129936401Y-62221747D01*
X129956107Y-62207132D01*
X129977150Y-62194520D01*
X129999329Y-62184030D01*
X130022428Y-62175765D01*
X130046227Y-62169804D01*
X130070495Y-62166204D01*
X130094999Y-62165000D01*
X130745001Y-62165000D01*
X130769505Y-62166204D01*
X130769505Y-62166204D01*
G37*
D11*
X130420000Y-62865000D03*
D10*
G36*
X133824505Y-66246204D02*
G01*
X133848773Y-66249804D01*
X133872572Y-66255765D01*
X133895671Y-66264030D01*
X133917850Y-66274520D01*
X133938893Y-66287132D01*
X133958599Y-66301747D01*
X133976777Y-66318223D01*
X133993253Y-66336401D01*
X134007868Y-66356107D01*
X134020480Y-66377150D01*
X134030970Y-66399329D01*
X134039235Y-66422428D01*
X134045196Y-66446227D01*
X134048796Y-66470495D01*
X134050000Y-66494999D01*
X134050000Y-67145001D01*
X134048796Y-67169505D01*
X134045196Y-67193773D01*
X134039235Y-67217572D01*
X134030970Y-67240671D01*
X134020480Y-67262850D01*
X134007868Y-67283893D01*
X133993253Y-67303599D01*
X133976777Y-67321777D01*
X133958599Y-67338253D01*
X133938893Y-67352868D01*
X133917850Y-67365480D01*
X133895671Y-67375970D01*
X133872572Y-67384235D01*
X133848773Y-67390196D01*
X133824505Y-67393796D01*
X133800001Y-67395000D01*
X132899999Y-67395000D01*
X132875495Y-67393796D01*
X132851227Y-67390196D01*
X132827428Y-67384235D01*
X132804329Y-67375970D01*
X132782150Y-67365480D01*
X132761107Y-67352868D01*
X132741401Y-67338253D01*
X132723223Y-67321777D01*
X132706747Y-67303599D01*
X132692132Y-67283893D01*
X132679520Y-67262850D01*
X132669030Y-67240671D01*
X132660765Y-67217572D01*
X132654804Y-67193773D01*
X132651204Y-67169505D01*
X132650000Y-67145001D01*
X132650000Y-66494999D01*
X132651204Y-66470495D01*
X132654804Y-66446227D01*
X132660765Y-66422428D01*
X132669030Y-66399329D01*
X132679520Y-66377150D01*
X132692132Y-66356107D01*
X132706747Y-66336401D01*
X132723223Y-66318223D01*
X132741401Y-66301747D01*
X132761107Y-66287132D01*
X132782150Y-66274520D01*
X132804329Y-66264030D01*
X132827428Y-66255765D01*
X132851227Y-66249804D01*
X132875495Y-66246204D01*
X132899999Y-66245000D01*
X133800001Y-66245000D01*
X133824505Y-66246204D01*
X133824505Y-66246204D01*
G37*
D11*
X133350000Y-66820000D03*
D10*
G36*
X133824505Y-64196204D02*
G01*
X133848773Y-64199804D01*
X133872572Y-64205765D01*
X133895671Y-64214030D01*
X133917850Y-64224520D01*
X133938893Y-64237132D01*
X133958599Y-64251747D01*
X133976777Y-64268223D01*
X133993253Y-64286401D01*
X134007868Y-64306107D01*
X134020480Y-64327150D01*
X134030970Y-64349329D01*
X134039235Y-64372428D01*
X134045196Y-64396227D01*
X134048796Y-64420495D01*
X134050000Y-64444999D01*
X134050000Y-65095001D01*
X134048796Y-65119505D01*
X134045196Y-65143773D01*
X134039235Y-65167572D01*
X134030970Y-65190671D01*
X134020480Y-65212850D01*
X134007868Y-65233893D01*
X133993253Y-65253599D01*
X133976777Y-65271777D01*
X133958599Y-65288253D01*
X133938893Y-65302868D01*
X133917850Y-65315480D01*
X133895671Y-65325970D01*
X133872572Y-65334235D01*
X133848773Y-65340196D01*
X133824505Y-65343796D01*
X133800001Y-65345000D01*
X132899999Y-65345000D01*
X132875495Y-65343796D01*
X132851227Y-65340196D01*
X132827428Y-65334235D01*
X132804329Y-65325970D01*
X132782150Y-65315480D01*
X132761107Y-65302868D01*
X132741401Y-65288253D01*
X132723223Y-65271777D01*
X132706747Y-65253599D01*
X132692132Y-65233893D01*
X132679520Y-65212850D01*
X132669030Y-65190671D01*
X132660765Y-65167572D01*
X132654804Y-65143773D01*
X132651204Y-65119505D01*
X132650000Y-65095001D01*
X132650000Y-64444999D01*
X132651204Y-64420495D01*
X132654804Y-64396227D01*
X132660765Y-64372428D01*
X132669030Y-64349329D01*
X132679520Y-64327150D01*
X132692132Y-64306107D01*
X132706747Y-64286401D01*
X132723223Y-64268223D01*
X132741401Y-64251747D01*
X132761107Y-64237132D01*
X132782150Y-64224520D01*
X132804329Y-64214030D01*
X132827428Y-64205765D01*
X132851227Y-64199804D01*
X132875495Y-64196204D01*
X132899999Y-64195000D01*
X133800001Y-64195000D01*
X133824505Y-64196204D01*
X133824505Y-64196204D01*
G37*
D11*
X133350000Y-64770000D03*
D13*
X135510801Y-67843401D03*
X135510801Y-68630801D03*
X135510801Y-69443601D03*
X135510801Y-70231001D03*
X135510801Y-71043801D03*
X135510801Y-71831201D03*
X135510801Y-72618601D03*
X135510801Y-73431401D03*
X135510801Y-74218801D03*
X135510801Y-75031601D03*
X135510801Y-75819001D03*
D14*
X137263401Y-77571601D03*
X138050801Y-77571601D03*
X138863601Y-77571601D03*
X139651001Y-77571601D03*
X140463801Y-77571601D03*
X141251201Y-77571601D03*
X142038601Y-77571601D03*
X142851401Y-77571601D03*
X143638801Y-77571601D03*
X144451601Y-77571601D03*
X145239001Y-77571601D03*
D13*
X146991601Y-75819001D03*
X146991601Y-75031601D03*
X146991601Y-74218801D03*
X146991601Y-73431401D03*
X146991601Y-72618601D03*
X146991601Y-71831201D03*
X146991601Y-71043801D03*
X146991601Y-70231001D03*
X146991601Y-69443601D03*
X146991601Y-68630801D03*
X146991601Y-67843401D03*
D14*
X145239001Y-66090801D03*
X144451601Y-66090801D03*
X143638801Y-66090801D03*
X142851401Y-66090801D03*
X142038601Y-66090801D03*
X141251201Y-66090801D03*
X140463801Y-66090801D03*
X139651001Y-66090801D03*
X138863601Y-66090801D03*
X138050801Y-66090801D03*
X137263401Y-66090801D03*
M02*
