G04 #@! TF.GenerationSoftware,KiCad,Pcbnew,(5.1.2)-2*
G04 #@! TF.CreationDate,2019-07-31T13:06:10-06:00*
G04 #@! TF.ProjectId,ps2plus,70733270-6c75-4732-9e6b-696361645f70,rev?*
G04 #@! TF.SameCoordinates,Original*
G04 #@! TF.FileFunction,Legend,Bot*
G04 #@! TF.FilePolarity,Positive*
%FSLAX46Y46*%
G04 Gerber Fmt 4.6, Leading zero omitted, Abs format (unit mm)*
G04 Created by KiCad (PCBNEW (5.1.2)-2) date 2019-07-31 13:06:10*
%MOMM*%
%LPD*%
G04 APERTURE LIST*
%ADD10C,0.120000*%
%ADD11C,0.150000*%
G04 APERTURE END LIST*
D10*
X144880000Y-74850000D02*
X142450000Y-74850000D01*
X144900000Y-74840000D02*
X144900000Y-73840000D01*
X144900000Y-71790000D02*
X143050000Y-71790000D01*
X144900000Y-72840000D02*
X144900000Y-71790000D01*
X135180000Y-74946252D02*
X135180000Y-74423748D01*
X136600000Y-74946252D02*
X136600000Y-74423748D01*
X132640000Y-74946252D02*
X132640000Y-74423748D01*
X134060000Y-74946252D02*
X134060000Y-74423748D01*
X154630000Y-70775000D02*
X154630000Y-73635000D01*
X152710000Y-70775000D02*
X154630000Y-70775000D01*
X152710000Y-73635000D02*
X152710000Y-70775000D01*
X149150000Y-73676252D02*
X149150000Y-73153748D01*
X150570000Y-73676252D02*
X150570000Y-73153748D01*
D11*
X145315238Y-77447619D02*
X145410476Y-77400000D01*
X145505714Y-77304761D01*
X145648571Y-77161904D01*
X145743809Y-77114285D01*
X145839047Y-77114285D01*
X145791428Y-77352380D02*
X145886666Y-77304761D01*
X145981904Y-77209523D01*
X146029523Y-77019047D01*
X146029523Y-76685714D01*
X145981904Y-76495238D01*
X145886666Y-76400000D01*
X145791428Y-76352380D01*
X145600952Y-76352380D01*
X145505714Y-76400000D01*
X145410476Y-76495238D01*
X145362857Y-76685714D01*
X145362857Y-77019047D01*
X145410476Y-77209523D01*
X145505714Y-77304761D01*
X145600952Y-77352380D01*
X145791428Y-77352380D01*
X144410476Y-77352380D02*
X144981904Y-77352380D01*
X144696190Y-77352380D02*
X144696190Y-76352380D01*
X144791428Y-76495238D01*
X144886666Y-76590476D01*
X144981904Y-76638095D01*
X137087619Y-74851666D02*
X137563809Y-75185000D01*
X137087619Y-75423095D02*
X138087619Y-75423095D01*
X138087619Y-75042142D01*
X138040000Y-74946904D01*
X137992380Y-74899285D01*
X137897142Y-74851666D01*
X137754285Y-74851666D01*
X137659047Y-74899285D01*
X137611428Y-74946904D01*
X137563809Y-75042142D01*
X137563809Y-75423095D01*
X137992380Y-74470714D02*
X138040000Y-74423095D01*
X138087619Y-74327857D01*
X138087619Y-74089761D01*
X138040000Y-73994523D01*
X137992380Y-73946904D01*
X137897142Y-73899285D01*
X137801904Y-73899285D01*
X137659047Y-73946904D01*
X137087619Y-74518333D01*
X137087619Y-73899285D01*
X135452380Y-74518333D02*
X134976190Y-74185000D01*
X135452380Y-73946904D02*
X134452380Y-73946904D01*
X134452380Y-74327857D01*
X134500000Y-74423095D01*
X134547619Y-74470714D01*
X134642857Y-74518333D01*
X134785714Y-74518333D01*
X134880952Y-74470714D01*
X134928571Y-74423095D01*
X134976190Y-74327857D01*
X134976190Y-73946904D01*
X135452380Y-75470714D02*
X135452380Y-74899285D01*
X135452380Y-75185000D02*
X134452380Y-75185000D01*
X134595238Y-75089761D01*
X134690476Y-74994523D01*
X134738095Y-74899285D01*
X152472380Y-71896904D02*
X151472380Y-71896904D01*
X151472380Y-72135000D01*
X151520000Y-72277857D01*
X151615238Y-72373095D01*
X151710476Y-72420714D01*
X151900952Y-72468333D01*
X152043809Y-72468333D01*
X152234285Y-72420714D01*
X152329523Y-72373095D01*
X152424761Y-72277857D01*
X152472380Y-72135000D01*
X152472380Y-71896904D01*
X152472380Y-73420714D02*
X152472380Y-72849285D01*
X152472380Y-73135000D02*
X151472380Y-73135000D01*
X151615238Y-73039761D01*
X151710476Y-72944523D01*
X151758095Y-72849285D01*
X151867142Y-73248333D02*
X151914761Y-73200714D01*
X151962380Y-73057857D01*
X151962380Y-72962619D01*
X151914761Y-72819761D01*
X151819523Y-72724523D01*
X151724285Y-72676904D01*
X151533809Y-72629285D01*
X151390952Y-72629285D01*
X151200476Y-72676904D01*
X151105238Y-72724523D01*
X151010000Y-72819761D01*
X150962380Y-72962619D01*
X150962380Y-73057857D01*
X151010000Y-73200714D01*
X151057619Y-73248333D01*
X151962380Y-74200714D02*
X151962380Y-73629285D01*
X151962380Y-73915000D02*
X150962380Y-73915000D01*
X151105238Y-73819761D01*
X151200476Y-73724523D01*
X151248095Y-73629285D01*
M02*
