G04 #@! TF.GenerationSoftware,KiCad,Pcbnew,(5.1.2)-2*
G04 #@! TF.CreationDate,2019-07-31T13:06:09-06:00*
G04 #@! TF.ProjectId,ps2plus,70733270-6c75-4732-9e6b-696361645f70,rev?*
G04 #@! TF.SameCoordinates,Original*
G04 #@! TF.FileFunction,Copper,L1,Top*
G04 #@! TF.FilePolarity,Positive*
%FSLAX46Y46*%
G04 Gerber Fmt 4.6, Leading zero omitted, Abs format (unit mm)*
G04 Created by KiCad (PCBNEW (5.1.2)-2) date 2019-07-31 13:06:09*
%MOMM*%
%LPD*%
G04 APERTURE LIST*
%ADD10O,1.700000X1.700000*%
%ADD11R,1.700000X1.700000*%
%ADD12R,2.000000X2.000000*%
%ADD13R,0.482600X1.473200*%
%ADD14R,1.473200X0.482600*%
%ADD15C,0.800000*%
%ADD16C,0.250000*%
G04 APERTURE END LIST*
D10*
X151130000Y-106680000D03*
X148590000Y-106680000D03*
X146050000Y-106680000D03*
X143510000Y-106680000D03*
X140970000Y-106680000D03*
D11*
X138430000Y-106680000D03*
D12*
X157480000Y-100330000D03*
D13*
X141018400Y-76545800D03*
X141805800Y-76545800D03*
X142618600Y-76545800D03*
X143406000Y-76545800D03*
X144218800Y-76545800D03*
X145006200Y-76545800D03*
X145793600Y-76545800D03*
X146606400Y-76545800D03*
X147393800Y-76545800D03*
X148206600Y-76545800D03*
X148994000Y-76545800D03*
D14*
X150746600Y-78298400D03*
X150746600Y-79085800D03*
X150746600Y-79898600D03*
X150746600Y-80686000D03*
X150746600Y-81498800D03*
X150746600Y-82286200D03*
X150746600Y-83073600D03*
X150746600Y-83886400D03*
X150746600Y-84673800D03*
X150746600Y-85486600D03*
X150746600Y-86274000D03*
D13*
X148994000Y-88026600D03*
X148206600Y-88026600D03*
X147393800Y-88026600D03*
X146606400Y-88026600D03*
X145793600Y-88026600D03*
X145006200Y-88026600D03*
X144218800Y-88026600D03*
X143406000Y-88026600D03*
X142618600Y-88026600D03*
X141805800Y-88026600D03*
X141018400Y-88026600D03*
D14*
X139265800Y-86274000D03*
X139265800Y-85486600D03*
X139265800Y-84673800D03*
X139265800Y-83886400D03*
X139265800Y-83073600D03*
X139265800Y-82286200D03*
X139265800Y-81498800D03*
X139265800Y-80686000D03*
X139265800Y-79898600D03*
X139265800Y-79085800D03*
X139265800Y-78298400D03*
D12*
X157480000Y-96520000D03*
X157480000Y-92710000D03*
X157480000Y-88900000D03*
X130810000Y-77470000D03*
X157480000Y-81280000D03*
X157480000Y-77470000D03*
X157480000Y-73660000D03*
X153670000Y-100330000D03*
X157480000Y-66040000D03*
X149860000Y-100330000D03*
X153670000Y-66040000D03*
X146050000Y-100330000D03*
X149860000Y-66040000D03*
X146050000Y-66040000D03*
X142240000Y-100330000D03*
X138430000Y-100330000D03*
X134620000Y-100330000D03*
X130810000Y-100330000D03*
X142240000Y-66040000D03*
X138430000Y-66040000D03*
X134620000Y-66040000D03*
X130810000Y-96520000D03*
X130810000Y-92710000D03*
X130810000Y-88900000D03*
X130810000Y-85090000D03*
X130810000Y-81280000D03*
X157480000Y-85090000D03*
X130810000Y-73660000D03*
X130810000Y-66040000D03*
X157480000Y-69850000D03*
X130810000Y-69850000D03*
D15*
X154940000Y-69850000D03*
X134620000Y-69850000D03*
X133350000Y-71120000D03*
X144780000Y-93980000D03*
X135890000Y-77470000D03*
X154940000Y-87630000D03*
X133350000Y-77470000D03*
X154950000Y-83810000D03*
D16*
X154940000Y-69850000D02*
X157480000Y-69850000D01*
X130810000Y-66040000D02*
X134620000Y-69850000D01*
X130810000Y-69850000D02*
X132080000Y-69850000D01*
X132080000Y-69850000D02*
X133350000Y-71120000D01*
X145793600Y-88026600D02*
X145793600Y-92966400D01*
X145793600Y-92966400D02*
X144780000Y-93980000D01*
X142240000Y-100330000D02*
X142240000Y-93980000D01*
X145006200Y-91213800D02*
X145006200Y-88026600D01*
X142240000Y-93980000D02*
X145006200Y-91213800D01*
X143510000Y-106680000D02*
X143510000Y-104140000D01*
X142240000Y-102870000D02*
X142240000Y-100330000D01*
X143510000Y-104140000D02*
X142240000Y-102870000D01*
X138430000Y-100330000D02*
X138430000Y-96520000D01*
X144218800Y-90731200D02*
X144218800Y-88026600D01*
X138430000Y-96520000D02*
X144218800Y-90731200D01*
X140970000Y-106680000D02*
X140970000Y-105410000D01*
X138430000Y-102870000D02*
X138430000Y-100330000D01*
X140970000Y-105410000D02*
X138430000Y-102870000D01*
X139265800Y-79085800D02*
X137505800Y-79085800D01*
X137505800Y-79085800D02*
X135890000Y-77470000D01*
X130810000Y-100330000D02*
X140970000Y-90170000D01*
X142618600Y-89013200D02*
X142618600Y-88026600D01*
X141461800Y-90170000D02*
X142618600Y-89013200D01*
X140970000Y-90170000D02*
X141461800Y-90170000D01*
X143406000Y-89013200D02*
X143406000Y-88026600D01*
X143406000Y-90294000D02*
X143406000Y-89013200D01*
X134620000Y-99080000D02*
X143406000Y-90294000D01*
X134620000Y-100330000D02*
X134620000Y-99080000D01*
X146606400Y-89013200D02*
X146606400Y-88026600D01*
X146606400Y-98523600D02*
X146606400Y-89013200D01*
X146050000Y-99080000D02*
X146606400Y-98523600D01*
X146050000Y-100330000D02*
X146050000Y-99080000D01*
X147393800Y-89013200D02*
X147393800Y-88026600D01*
X147393800Y-96613800D02*
X147393800Y-89013200D01*
X149860000Y-99080000D02*
X147393800Y-96613800D01*
X149860000Y-100330000D02*
X149860000Y-99080000D01*
X148206600Y-89013200D02*
X148206600Y-88026600D01*
X148206600Y-93616600D02*
X148206600Y-89013200D01*
X153670000Y-99080000D02*
X148206600Y-93616600D01*
X153670000Y-100330000D02*
X153670000Y-99080000D01*
X148994000Y-89013200D02*
X148994000Y-88026600D01*
X148994000Y-90594000D02*
X148994000Y-89013200D01*
X157480000Y-99080000D02*
X148994000Y-90594000D01*
X157480000Y-100330000D02*
X157480000Y-99080000D01*
X151733200Y-79898600D02*
X150746600Y-79898600D01*
X153801400Y-79898600D02*
X151733200Y-79898600D01*
X156230000Y-77470000D02*
X153801400Y-79898600D01*
X157480000Y-77470000D02*
X156230000Y-77470000D01*
X151733200Y-80686000D02*
X150746600Y-80686000D01*
X152462410Y-80686000D02*
X151733200Y-80686000D01*
X153056410Y-81280000D02*
X152462410Y-80686000D01*
X157480000Y-81280000D02*
X153056410Y-81280000D01*
X151733200Y-85486600D02*
X150746600Y-85486600D01*
X153670000Y-87423400D02*
X151733200Y-85486600D01*
X153670000Y-90170000D02*
X153670000Y-87423400D01*
X156210000Y-92710000D02*
X153670000Y-90170000D01*
X157480000Y-92710000D02*
X156210000Y-92710000D01*
X156230000Y-96520000D02*
X157480000Y-96520000D01*
X150746600Y-91036600D02*
X156230000Y-96520000D01*
X150746600Y-86274000D02*
X150746600Y-91036600D01*
X150746600Y-78298400D02*
X151241900Y-78298400D01*
X139265800Y-83073600D02*
X141716400Y-83073600D01*
X142503800Y-82286200D02*
X150746600Y-82286200D01*
X141716400Y-83073600D02*
X142503800Y-82286200D01*
X156210000Y-88900000D02*
X152400000Y-85090000D01*
X151733200Y-82286200D02*
X150746600Y-82286200D01*
X152400000Y-82953000D02*
X151733200Y-82286200D01*
X152400000Y-85090000D02*
X152400000Y-82953000D01*
X139265800Y-83073600D02*
X136413600Y-83073600D01*
X134620000Y-81280000D02*
X130810000Y-81280000D01*
X136413600Y-83073600D02*
X134620000Y-81280000D01*
X156210000Y-88900000D02*
X157480000Y-88900000D01*
X154940000Y-87630000D02*
X156210000Y-88900000D01*
X139265800Y-82286200D02*
X141233800Y-82286200D01*
X142021200Y-81498800D02*
X150746600Y-81498800D01*
X141233800Y-82286200D02*
X142021200Y-81498800D01*
X151733200Y-81498800D02*
X150746600Y-81498800D01*
X152638800Y-81498800D02*
X151733200Y-81498800D01*
X156230000Y-85090000D02*
X154950000Y-83810000D01*
X157480000Y-85090000D02*
X156230000Y-85090000D01*
X138279200Y-82286200D02*
X133463000Y-77470000D01*
X139265800Y-82286200D02*
X138279200Y-82286200D01*
X133463000Y-77470000D02*
X133350000Y-77470000D01*
X133350000Y-77470000D02*
X130810000Y-77470000D01*
X154950000Y-83810000D02*
X152638800Y-81498800D01*
X146606400Y-75559200D02*
X146606400Y-76545800D01*
X146606400Y-70543600D02*
X146606400Y-75559200D01*
X149860000Y-67290000D02*
X146606400Y-70543600D01*
X149860000Y-66040000D02*
X149860000Y-67290000D01*
X139265800Y-83886400D02*
X135823600Y-83886400D01*
X134620000Y-85090000D02*
X130810000Y-85090000D01*
X135823600Y-83886400D02*
X134620000Y-85090000D01*
X139265800Y-84673800D02*
X137576200Y-84673800D01*
X137576200Y-84673800D02*
X133350000Y-88900000D01*
X133350000Y-88900000D02*
X130810000Y-88900000D01*
X138279200Y-85486600D02*
X134620000Y-89145800D01*
X139265800Y-85486600D02*
X138279200Y-85486600D01*
X132060000Y-92710000D02*
X130810000Y-92710000D01*
X134620000Y-90150000D02*
X132060000Y-92710000D01*
X134620000Y-89145800D02*
X134620000Y-90150000D01*
X132060000Y-96520000D02*
X130810000Y-96520000D01*
X139265800Y-89314200D02*
X132060000Y-96520000D01*
X139265800Y-86274000D02*
X139265800Y-89314200D01*
X147393800Y-75559200D02*
X147393800Y-76545800D01*
X147393800Y-73566200D02*
X147393800Y-75559200D01*
X153670000Y-67290000D02*
X147393800Y-73566200D01*
X153670000Y-66040000D02*
X153670000Y-67290000D01*
X157480000Y-73660000D02*
X156210000Y-73660000D01*
X156210000Y-73660000D02*
X153670000Y-76200000D01*
X151733200Y-79085800D02*
X150746600Y-79085800D01*
X153670000Y-77149000D02*
X151733200Y-79085800D01*
X153670000Y-76200000D02*
X153670000Y-77149000D01*
X148206600Y-75313400D02*
X148206600Y-76545800D01*
X157480000Y-66040000D02*
X148206600Y-75313400D01*
X141805800Y-75559200D02*
X141805800Y-76545800D01*
X141805800Y-70665800D02*
X141805800Y-75559200D01*
X138430000Y-67290000D02*
X141805800Y-70665800D01*
X138430000Y-66040000D02*
X138430000Y-67290000D01*
X142618600Y-75559200D02*
X142618600Y-76545800D01*
X142618600Y-67668600D02*
X142618600Y-75559200D01*
X142240000Y-67290000D02*
X142618600Y-67668600D01*
X142240000Y-66040000D02*
X142240000Y-67290000D01*
X145793600Y-75559200D02*
X145793600Y-76545800D01*
X145793600Y-67546400D02*
X145793600Y-75559200D01*
X146050000Y-67290000D02*
X145793600Y-67546400D01*
X146050000Y-66040000D02*
X146050000Y-67290000D01*
X141018400Y-73708400D02*
X141018400Y-76545800D01*
X134620000Y-66040000D02*
X134620000Y-67310000D01*
X134620000Y-67310000D02*
X141018400Y-73708400D01*
X132060000Y-73660000D02*
X130810000Y-73660000D01*
X135118700Y-73660000D02*
X132060000Y-73660000D01*
X139265800Y-77807100D02*
X135118700Y-73660000D01*
X139265800Y-78298400D02*
X139265800Y-77807100D01*
M02*
